<svg width="16" height="16" viewBox="0 0 16 16" fill="none" xmlns="http://www.w3.org/2000/svg">
<g clip-path="url(#clip0_881_4063)">
<path d="M0.882842 8.26696L3.25618 10.0003L2.35484 12.7916C2.20918 13.2246 2.20734 13.693 2.34958 14.127C2.49183 14.5611 2.77054 14.9375 3.14418 15.2003C3.51141 15.4715 3.95644 15.6168 4.41294 15.6145C4.86945 15.6122 5.313 15.4625 5.67751 15.1876L7.99818 13.4796L10.3195 15.1856C10.6861 15.4553 11.1287 15.6017 11.5838 15.6039C12.0388 15.6062 12.4828 15.464 12.852 15.198C13.2212 14.9319 13.4965 14.5557 13.6384 14.1233C13.7802 13.6909 13.7813 13.2247 13.6415 12.7916L12.7402 10.0003L15.1135 8.26696C15.4796 7.9993 15.7517 7.6228 15.8911 7.19122C16.0304 6.75965 16.0298 6.29509 15.8893 5.86389C15.7488 5.43269 15.4757 5.05691 15.1089 4.79023C14.742 4.52355 14.3003 4.37961 13.8468 4.37896H10.9315L10.0468 1.62163C9.90772 1.1876 9.63435 0.808971 9.26616 0.540339C8.89796 0.271706 8.45395 0.126953 7.99818 0.126953C7.5424 0.126953 7.0984 0.271706 6.7302 0.540339C6.362 0.808971 6.08863 1.1876 5.94951 1.62163L5.06484 4.37896H2.15218C1.69867 4.37961 1.25697 4.52355 0.890162 4.79023C0.523354 5.05691 0.250203 5.43269 0.109723 5.86389C-0.0307565 6.29509 -0.0313783 6.75965 0.107947 7.19122C0.247271 7.6228 0.519416 7.9993 0.885509 8.26696H0.882842Z" fill="#008AFF"/>
</g>
<defs>
<clipPath id="clip0_881_4063">
<rect width="16" height="16" fill="white"/>
</clipPath>
</defs>
</svg>
