<svg width="196" height="303" viewBox="0 0 196 303" fill="none" xmlns="http://www.w3.org/2000/svg">
<path d="M190.376 0.47168H192.171V4.06234H195.762V5.85766H192.171V9.44832H190.376V5.85766H186.785V4.06234H190.376V0.47168Z" fill="#DEE7EE"/>
<path d="M159.247 0.47168H161.042V4.06234H164.633V5.85766H161.042V9.44832H159.247V5.85766H155.656V4.06234H159.247V0.47168Z" fill="#DEE7EE"/>
<path d="M128.118 0.47168H129.913V4.06234H133.504V5.85766H129.913V9.44832H128.118V5.85766H124.517V4.06234H128.118V0.47168Z" fill="#DEE7EE"/>
<path d="M96.9789 0.47168H98.7843V4.06234H102.375V5.85766H98.7843V9.44832H96.9789V5.85766H93.3882V4.06234H96.9789V0.47168Z" fill="#DEE7EE"/>
<path d="M65.85 0.47168H67.6453V4.06234H71.2461V5.85766H67.6453V9.44832H65.85V5.85766H62.2593V4.06234H65.85V0.47168Z" fill="#DEE7EE"/>
<path d="M34.7195 0.47168H36.5148V4.06234H40.1055V5.85766H36.5148V9.44832H34.7195V5.85766H31.1288V4.06234H34.7195V0.47168Z" fill="#DEE7EE"/>
<path d="M3.59057 4.06234V0.47168H5.3859V4.06234H8.97656V5.85766H5.3859V9.44832H3.59057V5.85766H-8.2016e-05V4.06234H3.59057Z" fill="#DEE7EE"/>
<path d="M190.376 29.8057H192.171V33.3963H195.762V35.1916H192.171V38.7823H190.376V35.1916H186.785V33.3963H190.376V29.8057Z" fill="#DEE7EE"/>
<path d="M159.247 29.8054H161.042V33.3961H164.633V35.1914H161.042V38.7821H159.247V35.1914H155.656V33.3961H159.247V29.8054Z" fill="#DEE7EE"/>
<path d="M128.118 29.8057H129.913V33.3963H133.504V35.1916H129.913V38.7823H128.118V35.1916H124.517V33.3963H128.118V29.8057Z" fill="#DEE7EE"/>
<path d="M96.9789 29.8057H98.7843V33.3963H102.375V35.1916H98.7843V38.7823H96.9789V35.1916H93.3882V33.3963H96.9789V29.8057Z" fill="#DEE7EE"/>
<path d="M65.85 29.8054H67.6453V33.3961H71.2461V35.1914H67.6453V38.7821H65.85V35.1914H62.2593V33.3961H65.85V29.8054Z" fill="#DEE7EE"/>
<path d="M34.7195 29.8057H36.5148V33.3963H40.1055V35.1916H36.5148V38.7823H34.7195V35.1916H31.1288V33.3963H34.7195V29.8057Z" fill="#DEE7EE"/>
<path d="M3.59057 29.8057H5.3859V33.3963H8.97656V35.1916H5.3859V38.7823H3.59057V35.1916H-8.2016e-05V33.3963H3.59057V29.8057Z" fill="#DEE7EE"/>
<path d="M190.376 59.1399H192.171V62.7305H195.762V64.5259H192.171V68.1165H190.376V64.5259H186.785V62.7305H190.376V59.1399Z" fill="#DEE7EE"/>
<path d="M159.247 59.1401H161.042V62.7308H164.633V64.5261H161.042V68.1168H159.247V64.5261H155.656V62.7308H159.247V59.1401Z" fill="#DEE7EE"/>
<path d="M128.118 59.1394H129.913V62.7301H133.504V64.5254H129.913V68.116H128.118V64.5254H124.517V62.7301H128.118V59.1394Z" fill="#DEE7EE"/>
<path d="M96.9789 59.1394H98.7843V62.7301H102.375V64.5254H98.7843V68.116H96.9789V64.5254H93.3882V62.7301H96.9789V59.1394Z" fill="#DEE7EE"/>
<path d="M65.85 59.1392H67.6453V62.7298H71.2461V64.5251H67.6453V68.1158H65.85V64.5251H62.2593V62.7298H65.85V59.1392Z" fill="#DEE7EE"/>
<path d="M34.7195 59.1394H36.5148V62.7301H40.1055V64.5254H36.5148V68.116H34.7195V64.5254H31.1288V62.7301H34.7195V59.1394Z" fill="#DEE7EE"/>
<path d="M3.59057 59.1394H5.3859V62.7301H8.97656V64.5254H5.3859V68.116H3.59057V64.5254H-8.2016e-05V62.7301H3.59057V59.1394Z" fill="#DEE7EE"/>
<path d="M190.376 88.4734H192.171V92.064H195.762V93.8594H192.171V97.45H190.376V93.8594H186.785V92.064H190.376V88.4734Z" fill="#DEE7EE"/>
<path d="M159.247 88.4734H161.042V92.064H164.633V93.8594H161.042V97.45H159.247V93.8594H155.656V92.064H159.247V88.4734Z" fill="#DEE7EE"/>
<path d="M128.118 88.4734H129.913V92.064H133.504V93.8594H129.913V97.45H128.118V93.8594H124.517V92.064H128.118V88.4734Z" fill="#DEE7EE"/>
<path d="M96.9789 88.4734H98.7843V92.064H102.375V93.8594H98.7843V97.45H96.9789V93.8594H93.3882V92.064H96.9789V88.4734Z" fill="#DEE7EE"/>
<path d="M65.85 88.4734H67.6453V92.064H71.2461V93.8594H67.6453V97.45H65.85V93.8594H62.2593V92.064H65.85V88.4734Z" fill="#DEE7EE"/>
<path d="M34.7195 88.4734H36.5148V92.064H40.1055V93.8594H36.5148V97.45H34.7195V93.8594H31.1288V92.064H34.7195V88.4734Z" fill="#DEE7EE"/>
<path d="M3.59057 88.4734H5.3859V92.064H8.97656V93.8594H5.3859V97.45H3.59057V93.8594H-8.2016e-05V92.064H3.59057V88.4734Z" fill="#DEE7EE"/>
<path d="M190.376 117.808H192.171V121.398H195.762V123.194H192.171V126.794H190.376V123.194H186.785V121.398H190.376V117.808Z" fill="#DEE7EE"/>
<path d="M159.247 117.807H161.042V121.398H164.633V123.193H161.042V126.794H159.247V123.193H155.656V121.398H159.247V117.807Z" fill="#DEE7EE"/>
<path d="M128.118 117.808H129.913V121.398H133.504V123.194H129.913V126.794H128.118V123.194H124.517V121.398H128.118V117.808Z" fill="#DEE7EE"/>
<path d="M96.9789 117.808H98.7843V121.398H102.375V123.194H98.7843V126.794H96.9789V123.194H93.3882V121.398H96.9789V117.808Z" fill="#DEE7EE"/>
<path d="M65.85 117.807H67.6453V121.398H71.2461V123.193H67.6453V126.794H65.85V123.193H62.2593V121.398H65.85V117.807Z" fill="#DEE7EE"/>
<path d="M34.7195 117.808H36.5148V121.398H40.1055V123.194H36.5148V126.794H34.7195V123.194H31.1288V121.398H34.7195V117.808Z" fill="#DEE7EE"/>
<path d="M3.59057 117.808H5.3859V121.398H8.97656V123.194H5.3859V126.794H3.59057V123.194H-8.2016e-05V121.398H3.59057V117.808Z" fill="#DEE7EE"/>
<path d="M190.376 147.141H192.171V150.732H195.762V152.527H192.171V156.128H190.376V152.527H186.785V150.732H190.376V147.141Z" fill="#DEE7EE"/>
<path d="M159.247 147.141H161.042V150.732H164.633V152.527H161.042V156.128H159.247V152.527H155.656V150.732H159.247V147.141Z" fill="#DEE7EE"/>
<path d="M128.118 147.141H129.913V150.732H133.504V152.527H129.913V156.128H128.118V152.527H124.517V150.732H128.118V147.141Z" fill="#DEE7EE"/>
<path d="M96.9789 147.141H98.7843V150.732H102.375V152.527H98.7843V156.128H96.9789V152.527H93.3882V150.732H96.9789V147.141Z" fill="#DEE7EE"/>
<path d="M65.85 147.141H67.6453V150.732H71.2461V152.527H67.6453V156.128H65.85V152.527H62.2593V150.732H65.85V147.141Z" fill="#DEE7EE"/>
<path d="M34.7195 147.141H36.5148V150.732H40.1055V152.527H36.5148V156.128H34.7195V152.527H31.1288V150.732H34.7195V147.141Z" fill="#DEE7EE"/>
<path d="M3.59057 147.141H5.3859V150.732H8.97656V152.527H5.3859V156.128H3.59057V152.527H-8.2016e-05V150.732H3.59057V147.141Z" fill="#DEE7EE"/>
<path d="M190.376 176.475H192.171V180.066H195.762V181.861H192.171V185.462H190.376V181.861H186.785V180.066H190.376V176.475Z" fill="#DEE7EE"/>
<path d="M159.247 176.475H161.042V180.066H164.633V181.861H161.042V185.462H159.247V181.861H155.656V180.066H159.247V176.475Z" fill="#DEE7EE"/>
<path d="M128.118 176.475H129.913V180.066H133.504V181.861H129.913V185.462H128.118V181.861H124.517V180.066H128.118V176.475Z" fill="#DEE7EE"/>
<path d="M96.9789 176.475H98.7843V180.066H102.375V181.861H98.7843V185.462H96.9789V181.861H93.3882V180.066H96.9789V176.475Z" fill="#DEE7EE"/>
<path d="M65.85 176.475H67.6453V180.066H71.2461V181.861H67.6453V185.462H65.85V181.861H62.2593V180.066H65.85V176.475Z" fill="#DEE7EE"/>
<path d="M34.7195 176.475H36.5148V180.066H40.1055V181.861H36.5148V185.462H34.7195V181.861H31.1288V180.066H34.7195V176.475Z" fill="#DEE7EE"/>
<path d="M3.59057 176.475H5.3859V180.066H8.97656V181.861H5.3859V185.462H3.59057V181.861H-8.2016e-05V180.066H3.59057V176.475Z" fill="#DEE7EE"/>
<path d="M190.376 205.809H192.171V209.4H195.762V211.205H192.171V214.796H190.376V211.205H186.785V209.4H190.376V205.809Z" fill="#DEE7EE"/>
<path d="M159.247 205.809H161.042V209.4H164.633V211.205H161.042V214.796H159.247V211.205H155.656V209.4H159.247V205.809Z" fill="#DEE7EE"/>
<path d="M128.118 205.809H129.913V209.4H133.504V211.205H129.913V214.796H128.118V211.205H124.517V209.4H128.118V205.809Z" fill="#DEE7EE"/>
<path d="M96.9789 205.809H98.7843V209.4H102.375V211.205H98.7843V214.796H96.9789V211.205H93.3882V209.4H96.9789V205.809Z" fill="#DEE7EE"/>
<path d="M65.85 205.809H67.6453V209.4H71.2461V211.205H67.6453V214.796H65.85V211.205H62.2593V209.4H65.85V205.809Z" fill="#DEE7EE"/>
<path d="M34.7195 205.809H36.5148V209.4H40.1055V211.205H36.5148V214.796H34.7195V211.205H31.1288V209.4H34.7195V205.809Z" fill="#DEE7EE"/>
<path d="M3.59057 205.809H5.3859V209.4H8.97656V211.205H5.3859V214.796H3.59057V211.205H-8.2016e-05V209.4H3.59057V205.809Z" fill="#DEE7EE"/>
<path d="M190.376 235.143H192.171V238.744H195.762V240.539H192.171V244.13H190.376V240.539H186.785V238.744H190.376V235.143Z" fill="#DEE7EE"/>
<path d="M159.247 235.143H161.042V238.743H164.633V240.539H161.042V244.129H159.247V240.539H155.656V238.743H159.247V235.143Z" fill="#DEE7EE"/>
<path d="M128.118 235.143H129.913V238.744H133.504V240.539H129.913V244.13H128.118V240.539H124.517V238.744H128.118V235.143Z" fill="#DEE7EE"/>
<path d="M96.9789 235.143H98.7843V238.744H102.375V240.539H98.7843V244.13H96.9789V240.539H93.3882V238.744H96.9789V235.143Z" fill="#DEE7EE"/>
<path d="M65.85 235.143H67.6453V238.743H71.2461V240.539H67.6453V244.129H65.85V240.539H62.2593V238.743H65.85V235.143Z" fill="#DEE7EE"/>
<path d="M34.7195 235.143H36.5148V238.744H40.1055V240.539H36.5148V244.13H34.7195V240.539H31.1288V238.744H34.7195V235.143Z" fill="#DEE7EE"/>
<path d="M3.59057 235.143H5.3859V238.744H8.97656V240.539H5.3859V244.13H3.59057V240.539H-8.2016e-05V238.744H3.59057V235.143Z" fill="#DEE7EE"/>
<path d="M190.376 264.476H192.171V268.077H195.762V269.872H192.171V273.463H190.376V269.872H186.785V268.077H190.376V264.476Z" fill="#DEE7EE"/>
<path d="M159.247 264.476H161.042V268.076H164.633V269.872H161.042V273.462H159.247V269.872H155.656V268.076H159.247V264.476Z" fill="#DEE7EE"/>
<path d="M128.118 264.477H129.913V268.077H133.504V269.873H129.913V273.463H128.118V269.873H124.517V268.077H128.118V264.477Z" fill="#DEE7EE"/>
<path d="M96.9789 264.477H98.7843V268.077H102.375V269.873H98.7843V273.463H96.9789V269.873H93.3882V268.077H96.9789V264.477Z" fill="#DEE7EE"/>
<path d="M65.85 264.476H67.6453V268.076H71.2461V269.872H67.6453V273.462H65.85V269.872H62.2593V268.076H65.85V264.476Z" fill="#DEE7EE"/>
<path d="M34.7195 264.476H36.5148V268.077H40.1055V269.872H36.5148V273.463H34.7195V269.872H31.1288V268.077H34.7195V264.476Z" fill="#DEE7EE"/>
<path d="M3.59057 264.477H5.3859V268.077H8.97656V269.873H5.3859V273.463H3.59057V269.873H-8.2016e-05V268.077H3.59057V264.477Z" fill="#DEE7EE"/>
<path d="M190.376 293.81H192.171V297.411H195.762V299.206H192.171V302.797H190.376V299.206H186.785V297.411H190.376V293.81Z" fill="#DEE7EE"/>
<path d="M159.247 293.811H161.042V297.411H164.633V299.207H161.042V302.797H159.247V299.207H155.656V297.411H159.247V293.811Z" fill="#DEE7EE"/>
<path d="M128.118 293.811H129.913V297.411H133.504V299.207H129.913V302.797H128.118V299.207H124.517V297.411H128.118V293.811Z" fill="#DEE7EE"/>
<path d="M96.9789 293.811H98.7843V297.411H102.375V299.207H98.7843V302.797H96.9789V299.207H93.3882V297.411H96.9789V293.811Z" fill="#DEE7EE"/>
<path d="M65.85 293.811H67.6453V297.411H71.2461V299.207H67.6453V302.797H65.85V299.207H62.2593V297.411H65.85V293.811Z" fill="#DEE7EE"/>
<path d="M34.7195 293.81H36.5148V297.411H40.1055V299.206H36.5148V302.797H34.7195V299.206H31.1288V297.411H34.7195V293.81Z" fill="#DEE7EE"/>
<path d="M3.59057 293.811H5.3859V297.411H8.97656V299.207H5.3859V302.797H3.59057V299.207H-8.2016e-05V297.411H3.59057V293.811Z" fill="#DEE7EE"/>
</svg>
