<svg width="98" height="80" viewBox="0 0 98 80" fill="none" xmlns="http://www.w3.org/2000/svg">
<ellipse cx="48.5699" cy="40" rx="40.4762" ry="40" fill="#F5F6FA" fill-opacity="0.3"/>
<path d="M76.2652 57.0671C75.3456 57.2443 57.5249 60.434 48.5712 48.8446C41.453 57.9807 28.8353 58.2675 21.0161 57.1025C-1.73254 50.8471 0.0200211 27.0658 0.0373732 26.8354C0.0634573 26.4832 0.193503 26.1473 0.410352 25.872C0.627201 25.5968 0.920664 25.3951 1.25202 25.2937C1.5818 25.1912 1.93386 25.1904 2.26411 25.2913C2.59437 25.3921 2.88816 25.5902 3.1087 25.8608C3.16075 25.9317 8.81754 32.9314 16.1228 33.1972C20.1852 33.3738 24.1485 31.2869 27.714 27.3675C32.0322 23.8615 42.0937 21.1926 48.5712 29.5645C50.7773 26.6943 53.939 24.7519 57.4555 24.1065C61.7054 23.6249 65.9777 24.7883 69.4285 27.3671C72.9946 31.2864 76.9576 33.3742 81.0197 33.1972C88.325 32.9314 93.9817 25.9317 94.0338 25.8608C94.2556 25.5939 94.5493 25.3995 94.8785 25.3018C95.2076 25.2041 95.5576 25.2074 95.885 25.3113C96.2123 25.4151 96.5025 25.615 96.7194 25.886C96.9364 26.157 97.0705 26.4872 97.1051 26.8355C97.1225 27.0658 98.875 50.8471 76.2652 57.0671Z" fill="#F5F6FA"/>
</svg>
