<svg width="40" height="40" viewBox="0 0 40 40" fill="none" xmlns="http://www.w3.org/2000/svg">
<path d="M8.9209 28.7695C8.9209 28.1625 8.42926 27.6709 7.82227 27.6709H2.3291C1.72211 27.6709 1.23047 28.1625 1.23047 28.7695V37.6318C1.23047 38.2388 1.72211 38.7305 2.3291 38.7305H7.82227C8.42926 38.7305 8.9209 38.2388 8.9209 37.6318V28.7695Z" fill="#008AFF"/>
<path d="M17.7832 21.0791H12.29C11.683 21.0791 11.1914 21.5707 11.1914 22.1777V37.6318C11.1914 38.2388 11.683 38.7305 12.29 38.7305H17.7832C18.3902 38.7305 18.8818 38.2388 18.8818 37.6318V22.1777C18.8818 21.5707 18.3902 21.0791 17.7832 21.0791Z" fill="#008AFF"/>
<path d="M27.6699 18.8818H22.1768C21.5698 18.8818 21.0781 19.3735 21.0781 19.9805V37.6318C21.0781 38.2388 21.5698 38.7305 22.1768 38.7305H27.6699C28.2769 38.7305 28.7686 38.2388 28.7686 37.6318V19.9805C28.7686 19.3735 28.2769 18.8818 27.6699 18.8818Z" fill="#008AFF"/>
<path d="M37.6309 10.0928H32.1377C31.5307 10.0928 31.0391 10.5844 31.0391 11.1914V37.6318C31.0391 38.2388 31.5307 38.7305 32.1377 38.7305H37.6309C38.2379 38.7305 38.7295 38.2388 38.7295 37.6318V11.1914C38.7295 10.5844 38.2379 10.0928 37.6309 10.0928Z" fill="#008AFF"/>
<path d="M5.14746 25.4004C6.96478 25.4004 8.44336 23.9218 8.44336 22.1045C8.44336 21.7957 8.38705 21.503 8.3074 21.2196L12.588 18.1979C13.1254 18.5795 13.7781 18.8086 14.4858 18.8086C16.1532 18.8086 17.5206 17.5598 17.7373 15.9508L22.1204 15.0279C22.7006 15.9737 23.7347 16.6113 24.9229 16.6113C26.7402 16.6113 28.2188 15.1328 28.2188 13.3154C28.2188 12.876 28.1286 12.458 27.972 12.0744L33.2301 7.40067C33.7016 7.6609 34.2349 7.82227 34.8105 7.82227C36.6279 7.82227 38.1064 6.34369 38.1064 4.52637C38.1064 2.70905 36.6279 1.23047 34.8105 1.23047C32.9932 1.23047 31.5146 2.70905 31.5146 4.52637C31.5146 4.96582 31.6048 5.38376 31.7614 5.76736L26.5033 10.4411C26.0318 10.1809 25.4985 10.0195 24.9229 10.0195C23.2554 10.0195 21.8881 11.2683 21.6714 12.8773L17.2883 13.8002C16.7081 12.8545 15.674 12.2168 14.4858 12.2168C12.6685 12.2168 11.1899 13.6954 11.1899 15.5127C11.1899 15.8215 11.2462 16.1142 11.3259 16.3976L7.04535 19.4193C6.50793 19.0377 5.85516 18.8086 5.14746 18.8086C3.33014 18.8086 1.85156 20.2872 1.85156 22.1045C1.85156 23.9218 3.33014 25.4004 5.14746 25.4004Z" fill="#008AFF"/>
</svg>
