<svg width="40" height="40" viewBox="0 0 40 40" fill="none" xmlns="http://www.w3.org/2000/svg">
<path d="M33.3016 14.3V31.4C36.4497 31.4 39.0016 28.8481 39.0016 25.7V6.7C39.0016 3.55198 36.4497 1 33.3016 1H14.3016C11.1535 1 8.60156 3.55198 8.60156 6.7H25.7016C29.8989 6.7 33.3016 10.1026 33.3016 14.3Z" fill="#008AFF"/>
<path fill-rule="evenodd" clip-rule="evenodd" d="M6.7 39C3.55198 39 1 36.4481 1 33.3V14.3C1 11.152 3.55198 8.59998 6.7 8.59998H25.7C28.8481 8.59998 31.4 11.152 31.4 14.3V33.3C31.4 36.4481 28.8481 39 25.7 39H6.7ZM14.3297 31.3998C13.7421 31.4089 13.1834 31.1458 12.8163 30.6869L9.01635 25.9369C8.36083 25.1174 8.49368 23.9218 9.31307 23.2663C10.1325 22.6108 11.3281 22.7436 11.9836 23.563L14.2515 26.3978L21.33 16.96C21.9597 16.1205 23.1506 15.9504 23.99 16.58C24.8294 17.2096 24.9997 18.4006 24.37 19.24L15.82 30.64C15.4674 31.11 14.9172 31.3905 14.3297 31.3998Z" fill="#008AFF"/>
</svg>
