<svg width="40" height="40" viewBox="0 0 40 40" fill="none" xmlns="http://www.w3.org/2000/svg">
<path d="M33.3321 3.08337H6.66539C5.44982 3.08337 4.28403 3.56626 3.42449 4.4258C2.56495 5.28534 2.08206 6.45113 2.08206 7.66671V31C2.07987 31.6033 2.1968 32.2011 2.42615 32.7591C2.6555 33.3171 2.99276 33.8244 3.41858 34.2517C3.8444 34.6791 4.35041 35.0182 4.90757 35.2496C5.46474 35.4809 6.0621 35.6 6.66539 35.6H33.3321C34.5476 35.6 35.7134 35.1172 36.573 34.2576C37.4325 33.3981 37.9154 32.2323 37.9154 31.0167V7.66671C37.9154 6.45113 37.4325 5.28534 36.573 4.4258C35.7134 3.56626 34.5476 3.08337 33.3321 3.08337ZM9.99873 9.75004H22.0821V8.33337C22.0821 8.00185 22.2138 7.68391 22.4482 7.44949C22.6826 7.21507 23.0005 7.08337 23.3321 7.08337C23.6636 7.08337 23.9815 7.21507 24.2159 7.44949C24.4504 7.68391 24.5821 8.00185 24.5821 8.33337V13.3334C24.5821 13.6649 24.4504 13.9828 24.2159 14.2173C23.9815 14.4517 23.6636 14.5834 23.3321 14.5834C23.0005 14.5834 22.6826 14.4517 22.4482 14.2173C22.2138 13.9828 22.0821 13.6649 22.0821 13.3334V12.25H9.99873C9.66721 12.25 9.34927 12.1183 9.11484 11.8839C8.88042 11.6495 8.74873 11.3316 8.74873 11C8.74873 10.6685 8.88042 10.3506 9.11484 10.1162C9.34927 9.88174 9.66721 9.75004 9.99873 9.75004ZM9.99873 18.0834H12.4987C12.8302 18.0834 13.1482 18.2151 13.3826 18.4495C13.617 18.6839 13.7487 19.0019 13.7487 19.3334C13.7487 19.6649 13.617 19.9828 13.3826 20.2173C13.1482 20.4517 12.8302 20.5834 12.4987 20.5834H9.99873C9.66721 20.5834 9.34927 20.4517 9.11484 20.2173C8.88042 19.9828 8.74873 19.6649 8.74873 19.3334C8.74873 19.0019 8.88042 18.6839 9.11484 18.4495C9.34927 18.2151 9.66721 18.0834 9.99873 18.0834ZM21.2487 30C21.2487 30.3316 21.117 30.6495 20.8826 30.8839C20.6482 31.1183 20.3302 31.25 19.9987 31.25C19.6672 31.25 19.3493 31.1183 19.1148 30.8839C18.8804 30.6495 18.7487 30.3316 18.7487 30V28.9167H9.99873C9.66721 28.9167 9.34927 28.785 9.11484 28.5506C8.88042 28.3162 8.74873 27.9982 8.74873 27.6667C8.74873 27.3352 8.88042 27.0172 9.11484 26.7828C9.34927 26.5484 9.66721 26.4167 9.99873 26.4167H18.7487V25C18.7487 24.6685 18.8804 24.3506 19.1148 24.1162C19.3493 23.8817 19.6672 23.75 19.9987 23.75C20.3302 23.75 20.6482 23.8817 20.8826 24.1162C21.117 24.3506 21.2487 24.6685 21.2487 25V30ZM29.9987 28.9167H24.1654C23.8339 28.9167 23.5159 28.785 23.2815 28.5506C23.0471 28.3162 22.9154 27.9982 22.9154 27.6667C22.9154 27.3352 23.0471 27.0172 23.2815 26.7828C23.5159 26.5484 23.8339 26.4167 24.1654 26.4167H29.9987C30.3303 26.4167 30.6482 26.5484 30.8826 26.7828C31.117 27.0172 31.2487 27.3352 31.2487 27.6667C31.2487 27.9982 31.117 28.3162 30.8826 28.5506C30.6482 28.785 30.3303 28.9167 29.9987 28.9167ZM29.9987 20.5834H17.9154V21.6667C17.9154 21.9982 17.7837 22.3162 17.5493 22.5506C17.3149 22.785 16.9969 22.9167 16.6654 22.9167C16.3339 22.9167 16.0159 22.785 15.7815 22.5506C15.5471 22.3162 15.4154 21.9982 15.4154 21.6667V16.6667C15.4154 16.3352 15.5471 16.0172 15.7815 15.7828C16.0159 15.5484 16.3339 15.4167 16.6654 15.4167C16.9969 15.4167 17.3149 15.5484 17.5493 15.7828C17.7837 16.0172 17.9154 16.3352 17.9154 16.6667V18.0834H29.9987C30.3303 18.0834 30.6482 18.2151 30.8826 18.4495C31.117 18.6839 31.2487 19.0019 31.2487 19.3334C31.2487 19.6649 31.117 19.9828 30.8826 20.2173C30.6482 20.4517 30.3303 20.5834 29.9987 20.5834ZM29.9987 12.25H27.4987C27.1672 12.25 26.8493 12.1183 26.6148 11.8839C26.3804 11.6495 26.2487 11.3316 26.2487 11C26.2487 10.6685 26.3804 10.3506 26.6148 10.1162C26.8493 9.88174 27.1672 9.75004 27.4987 9.75004H29.9987C30.3303 9.75004 30.6482 9.88174 30.8826 10.1162C31.117 10.3506 31.2487 10.6685 31.2487 11C31.2487 11.3316 31.117 11.6495 30.8826 11.8839C30.6482 12.1183 30.3303 12.25 29.9987 12.25Z" fill="#008AFF"/>
</svg>
