<svg width="40" height="40" viewBox="0 0 40 40" fill="none" xmlns="http://www.w3.org/2000/svg">
<g clip-path="url(#clip0_881_3341)">
<path d="M33.4194 34.7266L23.0451 16.7578C21.6919 14.4141 18.309 14.4141 16.9559 16.7578L6.5817 34.7266C5.22858 37.0703 6.91998 40 9.62631 40H30.3748C33.0811 40 34.7726 37.0703 33.4194 34.7266ZM20.0005 35.3125C19.3533 35.3125 18.8287 34.7878 18.8287 34.1406C18.8287 33.4934 19.3533 32.9688 20.0005 32.9688C20.6477 32.9688 21.1724 33.4934 21.1724 34.1406C21.1724 34.7878 20.6477 35.3125 20.0005 35.3125ZM21.1724 29.4531C21.1724 30.1003 20.6477 30.625 20.0005 30.625C19.3533 30.625 18.8287 30.1003 18.8287 29.4531V22.4219C18.8287 21.7747 19.3533 21.25 20.0005 21.25C20.6477 21.25 21.1724 21.7747 21.1724 22.4219V29.4531Z" fill="#008AFF"/>
<path d="M12.7641 13.4148C14.3048 11.7141 16.4351 10.5576 18.8289 10.27V0C13.9274 0.281328 9.35859 2.32305 5.85859 5.82289C5.74398 5.9375 5.63102 6.05344 5.51953 6.17031L12.7641 13.4148Z" fill="#008AFF"/>
<path d="M21.1719 10.27C23.5657 10.5576 25.696 11.7142 27.2367 13.4148L34.4812 6.17031C34.3697 6.05344 34.2567 5.93758 34.1421 5.82289C30.6422 2.32305 26.0734 0.281328 21.1719 0V10.27Z" fill="#008AFF"/>
<path d="M3.99773 7.96387C1.40398 11.4073 0 15.5781 0 19.9651C0 20.6123 0.524687 21.137 1.17188 21.137H9.0625C9.70969 21.137 10.2344 20.6123 10.2344 19.9651C10.2344 18.3 10.6537 16.7311 11.3916 15.3579L3.99773 7.96387Z" fill="#008AFF"/>
<path d="M36.0034 7.96387L28.6094 15.3579C29.3473 16.7311 29.7666 18.3 29.7666 19.9651C29.7666 20.6123 30.2913 21.137 30.9385 21.137H38.8291C39.4763 21.137 40.001 20.6123 40.001 19.9651C40.0011 15.5781 38.5971 11.4073 36.0034 7.96387Z" fill="#008AFF"/>
</g>
<defs>
<clipPath id="clip0_881_3341">
<rect width="40" height="40" fill="white"/>
</clipPath>
</defs>
</svg>
