<svg width="40" height="40" viewBox="0 0 40 40" fill="none" xmlns="http://www.w3.org/2000/svg">
<path d="M28.6617 9.57507C29.1343 10.5932 29.4867 11.6629 29.7117 12.7626C31.4209 13.6907 32.8899 15.0049 34.0019 16.6005C35.1139 18.1962 35.8382 20.0293 36.1173 21.9541C36.3963 23.8789 36.2223 25.8423 35.6092 27.688C34.9961 29.5338 33.9607 31.211 32.5854 32.5863C31.2101 33.9615 29.5329 34.9969 27.6872 35.61C25.8414 36.2232 23.8781 36.3972 21.9533 36.1181C20.0285 35.8391 18.1954 35.1148 16.5997 34.0028C15.004 32.8908 13.6899 31.4217 12.7617 29.7126C11.662 29.4876 10.5923 29.1352 9.57422 28.6626C10.4071 31.0636 11.8364 33.2137 13.728 34.911C15.6195 36.6083 17.9113 37.7972 20.3882 38.3661C22.8652 38.9349 25.446 38.8651 27.8886 38.1632C30.3312 37.4613 32.5553 36.1503 34.3524 34.3533C36.1495 32.5562 37.4605 30.332 38.1624 27.8895C38.8643 25.4469 38.9341 22.866 38.3652 20.3891C37.7963 17.9122 36.6075 15.6204 34.9102 13.7288C33.2129 11.8373 31.0628 10.408 28.6617 9.57507Z" fill="#008AFF"/>
<path d="M23.7505 8.75002C25.4228 8.74622 27.0837 9.02515 28.663 9.57502C27.69 7.47589 26.2246 5.64265 24.3914 4.23105C22.5582 2.81944 20.4114 1.87118 18.1333 1.46683C15.8552 1.06248 13.5132 1.21399 11.3062 1.90848C9.09922 2.60297 7.09246 3.81992 5.45644 5.45595C3.82041 7.09197 2.60346 9.09873 1.90897 11.3057C1.21448 13.5127 1.06297 15.8548 1.46732 18.1328C1.87167 20.4109 2.81993 22.5578 4.23154 24.3909C5.64314 26.2241 7.47638 27.6895 9.57551 28.6625C9.02564 27.0832 8.74671 25.4223 8.75051 23.75C8.75051 19.7718 10.3309 15.9565 13.1439 13.1434C15.957 10.3304 19.7723 8.75002 23.7505 8.75002Z" fill="#008AFF"/>
<path d="M11.25 23.75C11.2496 25.8324 11.7695 27.882 12.7625 29.7125C15.089 30.1853 17.4964 30.0746 19.7697 29.3901C22.043 28.7057 24.1114 27.4689 25.7901 25.7901C27.4689 24.1114 28.7057 22.043 29.3901 19.7697C30.0746 17.4964 30.1853 15.089 29.7125 12.7625C27.8085 11.7291 25.6685 11.2083 23.5026 11.2512C21.3366 11.2941 19.219 11.8992 17.3573 13.0071C15.4957 14.115 13.9539 15.6877 12.8833 17.571C11.8126 19.4544 11.2498 21.5836 11.25 23.75Z" fill="#008AFF"/>
</svg>
