<svg width="561" height="513" viewBox="0 0 561 513" fill="none" xmlns="http://www.w3.org/2000/svg">
<g filter="url(#filter0_d_881_3170)">
<rect x="209" y="22" width="291.026" height="226.66" rx="41.9448" fill="#FAFAFA" shape-rendering="crispEdges"/>
<path d="M282.986 122.534C264.725 121.258 240.012 141.251 240.012 141.251V206.763H469.015V122.534C469.015 122.534 451.417 134.269 439.411 132.274C420.246 129.09 431.085 96.0424 412.481 90.4463C399.005 86.3928 390.254 102.634 377.147 97.5131C363.958 92.3606 368.45 74.7429 355.946 68.0998C327.666 53.0757 350.91 141.878 318.893 141.251C303.082 140.942 298.761 123.636 282.986 122.534Z" fill="url(#paint0_linear_881_3170)"/>
<path d="M240.012 141.251C240.012 141.251 264.725 121.258 282.986 122.534C298.761 123.636 303.082 140.942 318.893 141.251C350.91 141.878 327.666 53.0757 355.946 68.0998C368.45 74.7429 363.958 92.3606 377.147 97.5131C390.254 102.634 399.005 86.3928 412.481 90.4463C431.085 96.0424 420.246 129.09 439.411 132.274C451.417 134.269 469.015 122.534 469.015 122.534" stroke="url(#paint1_linear_881_3170)" stroke-width="1.9228" stroke-linecap="round"/>
<path d="M239.82 100.187C239.82 100.187 258.901 114.064 271.908 112.983C288.157 111.634 289.038 88.5799 305.332 87.963C324.686 87.2302 324.422 124.995 343.149 120.05C353.666 117.273 353.377 104.524 363.776 101.333C381.803 95.8012 386.714 128.203 405.413 125.78C420.86 123.779 420.687 100.032 436.164 98.2768C449.41 96.7743 453.926 105.726 469.206 109.928" stroke="url(#paint2_linear_881_3170)" stroke-width="1.9228" stroke-linecap="round"/>
<path opacity="0.5" d="M256.937 217.546C256.335 217.546 255.984 217.179 255.957 216.661L255.955 216.634H256.453L256.455 216.654C256.475 216.902 256.631 217.096 256.932 217.096C257.266 217.096 257.446 216.897 257.446 216.525V214.241H257.951V216.53C257.951 217.17 257.575 217.546 256.937 217.546ZM259.15 217.535C258.677 217.535 258.359 217.244 258.359 216.818V216.814C258.359 216.402 258.679 216.149 259.24 216.115L259.884 216.077V215.899C259.884 215.638 259.715 215.48 259.413 215.48C259.132 215.48 258.958 215.613 258.918 215.802L258.913 215.822H258.453L258.456 215.798C258.489 215.39 258.843 215.077 259.427 215.077C260.006 215.077 260.373 215.383 260.373 215.859V217.492H259.884V217.118H259.875C259.738 217.373 259.463 217.535 259.15 217.535ZM258.85 216.807C258.85 217.014 259.021 217.145 259.283 217.145C259.625 217.145 259.884 216.913 259.884 216.604V216.42L259.305 216.456C259.012 216.474 258.85 216.602 258.85 216.803V216.807ZM260.846 217.492V215.122H261.333V215.48H261.344C261.468 215.239 261.712 215.077 262.07 215.077C262.59 215.077 262.89 215.412 262.89 215.958V217.492H262.401V216.05C262.401 215.694 262.234 215.493 261.896 215.493C261.554 215.493 261.333 215.741 261.333 216.111V217.492H260.846Z" fill="#454459"/>
<path opacity="0.5" d="M382.532 217.492V214.241H383.116L384.168 216.836H384.182L385.236 214.241H385.818V217.492H385.358V215.092H385.342L384.362 217.492H383.988L383.008 215.092H382.992V217.492H382.532ZM386.992 217.535C386.518 217.535 386.201 217.244 386.201 216.818V216.814C386.201 216.402 386.521 216.149 387.082 216.115L387.726 216.077V215.899C387.726 215.638 387.557 215.48 387.255 215.48C386.974 215.48 386.8 215.613 386.76 215.802L386.755 215.822H386.295L386.298 215.798C386.331 215.39 386.685 215.077 387.269 215.077C387.848 215.077 388.215 215.383 388.215 215.859V217.492H387.726V217.118H387.717C387.58 217.373 387.305 217.535 386.992 217.535ZM386.692 216.807C386.692 217.014 386.863 217.145 387.125 217.145C387.467 217.145 387.726 216.913 387.726 216.604V216.42L387.147 216.456C386.854 216.474 386.692 216.602 386.692 216.803V216.807ZM388.963 218.283C388.869 218.283 388.767 218.272 388.709 218.261V217.88C388.747 217.889 388.803 217.898 388.869 217.898C389.098 217.898 389.225 217.837 389.306 217.607L389.346 217.494L388.483 215.122H389.011L389.608 217.051H389.623L390.221 215.122H390.734L389.851 217.603C389.675 218.094 389.427 218.283 388.963 218.283Z" fill="#454459"/>
<path opacity="0.5" d="M287.579 217.492V214.241H289.609V214.676H288.083V215.705H289.48V216.131H288.083V217.492H287.579ZM290.92 217.539C290.224 217.539 289.803 217.064 289.803 216.316V216.314C289.803 215.572 290.231 215.077 290.895 215.077C291.56 215.077 291.968 215.554 291.968 216.266V216.431H290.289C290.298 216.879 290.544 217.141 290.931 217.141C291.22 217.141 291.411 216.992 291.472 216.814L291.479 216.796H291.941L291.936 216.821C291.86 217.197 291.495 217.539 290.92 217.539ZM290.898 215.475C290.582 215.475 290.339 215.69 290.296 216.086H291.486C291.445 215.676 291.215 215.475 290.898 215.475ZM293.606 217.539C293.266 217.539 293.002 217.368 292.862 217.091H292.851V217.492H292.364V214.241H292.851V215.525H292.862C293.004 215.246 293.275 215.077 293.611 215.077C294.205 215.077 294.598 215.55 294.598 216.305V216.307C294.598 217.062 294.208 217.539 293.606 217.539ZM293.478 217.12C293.861 217.12 294.1 216.812 294.1 216.307V216.305C294.1 215.804 293.861 215.493 293.478 215.493C293.11 215.493 292.849 215.813 292.849 216.305V216.307C292.849 216.8 293.108 217.12 293.478 217.12Z" fill="#454459"/>
<path opacity="0.5" d="M319.339 217.492V214.241H319.923L320.975 216.836H320.989L322.043 214.241H322.624V217.492H322.165V215.092H322.149L321.169 217.492H320.795L319.815 215.092H319.799V217.492H319.339ZM323.798 217.535C323.325 217.535 323.007 217.244 323.007 216.818V216.814C323.007 216.402 323.327 216.149 323.888 216.115L324.533 216.077V215.899C324.533 215.638 324.364 215.48 324.062 215.48C323.78 215.48 323.607 215.613 323.566 215.802L323.562 215.822H323.102L323.104 215.798C323.138 215.39 323.492 215.077 324.076 215.077C324.655 215.077 325.022 215.383 325.022 215.859V217.492H324.533V217.118H324.524C324.386 217.373 324.112 217.535 323.798 217.535ZM323.499 216.807C323.499 217.014 323.67 217.145 323.931 217.145C324.274 217.145 324.533 216.913 324.533 216.604V216.42L323.954 216.456C323.661 216.474 323.499 216.602 323.499 216.803V216.807ZM325.495 217.492V215.122H325.982V215.527H325.993C326.07 215.25 326.268 215.077 326.538 215.077C326.608 215.077 326.669 215.088 326.707 215.095V215.548C326.669 215.532 326.583 215.521 326.489 215.521C326.176 215.521 325.982 215.726 325.982 216.079V217.492H325.495Z" fill="#454459"/>
<path opacity="0.5" d="M415.951 217.546C415.349 217.546 414.998 217.179 414.971 216.661L414.968 216.634H415.466L415.469 216.654C415.489 216.902 415.644 217.096 415.946 217.096C416.28 217.096 416.46 216.897 416.46 216.525V214.241H416.965V216.53C416.965 217.17 416.589 217.546 415.951 217.546ZM418.319 217.539C417.799 217.539 417.501 217.204 417.501 216.658V215.122H417.988V216.564C417.988 216.922 418.155 217.12 418.493 217.12C418.835 217.12 419.056 216.875 419.056 216.505V215.122H419.545V217.492H419.056V217.136H419.045C418.921 217.375 418.68 217.539 418.319 217.539ZM420.027 217.492V215.122H420.514V215.48H420.525C420.649 215.239 420.892 215.077 421.251 215.077C421.771 215.077 422.071 215.412 422.071 215.958V217.492H421.582V216.05C421.582 215.694 421.415 215.493 421.077 215.493C420.735 215.493 420.514 215.741 420.514 216.111V217.492H420.027Z" fill="#454459"/>
<path d="M350.993 217.492L352.156 214.241H352.81L353.972 217.492H353.362L353.087 216.652H351.877L351.602 217.492H350.993ZM352.476 214.82L352.023 216.203H352.94L352.49 214.82H352.476ZM354.263 218.281V215.104H354.824V215.516H354.835C354.973 215.23 355.234 215.054 355.577 215.054C356.183 215.054 356.566 215.527 356.566 216.298V216.3C356.566 217.066 356.183 217.539 355.583 217.539C355.243 217.539 354.971 217.368 354.835 217.089H354.824V218.281H354.263ZM355.41 217.066C355.768 217.066 355.994 216.771 355.994 216.3V216.298C355.994 215.82 355.768 215.527 355.41 215.527C355.063 215.527 354.82 215.829 354.82 216.298V216.3C354.82 216.767 355.063 217.066 355.41 217.066ZM356.926 217.492V215.104H357.487V215.516H357.499C357.573 215.228 357.771 215.054 358.046 215.054C358.116 215.054 358.181 215.065 358.224 215.077V215.584C358.177 215.566 358.091 215.552 357.997 215.552C357.679 215.552 357.487 215.753 357.487 216.106V217.492H356.926Z" fill="#454459"/>
<path opacity="0.5" d="M447.649 217.546C447.047 217.546 446.696 217.179 446.669 216.661L446.666 216.634H447.164L447.167 216.654C447.187 216.902 447.342 217.096 447.644 217.096C447.978 217.096 448.158 216.897 448.158 216.525V214.241H448.663V216.53C448.663 217.17 448.286 217.546 447.649 217.546ZM450.017 217.539C449.496 217.539 449.199 217.204 449.199 216.658V215.122H449.686V216.564C449.686 216.922 449.852 217.12 450.19 217.12C450.533 217.12 450.754 216.875 450.754 216.505V215.122H451.243V217.492H450.754V217.136H450.743C450.619 217.375 450.377 217.539 450.017 217.539ZM451.743 217.492V214.241H452.23V217.492H451.743Z" fill="#454459"/>
<path opacity="0.3" d="M259.492 205.616V52.82" stroke="#171724" stroke-width="0.384561" stroke-linecap="round" stroke-dasharray="0 0.38 5.38 0 0.38 5.38"/>
<path opacity="0.3" d="M291.008 205.616V52.82" stroke="#171724" stroke-width="0.384561" stroke-linecap="round" stroke-dasharray="0 0.38 5.38 0 0.38 5.38"/>
<path opacity="0.3" d="M322.52 205.616V52.82" stroke="#171724" stroke-width="0.384561" stroke-linecap="round" stroke-dasharray="0 0.38 5.38 0 0.38 5.38"/>
<path opacity="0.3" d="M354.035 206.762V53.9659" stroke="#171724" stroke-width="0.384561" stroke-linecap="round" stroke-dasharray="0 0.38 5.38 0 0.38 5.38"/>
<path opacity="0.3" d="M385.551 206.762V53.9659" stroke="#171724" stroke-width="0.384561" stroke-linecap="round" stroke-dasharray="0 0.38 5.38 0 0.38 5.38"/>
<path opacity="0.3" d="M417.062 206.762V53.9659" stroke="#171724" stroke-width="0.384561" stroke-linecap="round" stroke-dasharray="0 0.38 5.38 0 0.38 5.38"/>
<path opacity="0.3" d="M448.578 206.762V53.9659" stroke="#171724" stroke-width="0.384561" stroke-linecap="round" stroke-dasharray="0 0.38 5.38 0 0.38 5.38"/>
<g filter="url(#filter1_d_881_3170)">
<circle cx="354.034" cy="66.5716" r="7.63982" fill="url(#paint3_linear_881_3170)"/>
<circle cx="354.034" cy="66.5716" r="6.10158" stroke="#FAFAFA" stroke-width="3.07648"/>
</g>
</g>
<g filter="url(#filter2_d_881_3170)">
<rect x="106" y="168" width="344.323" height="257.89" rx="32" fill="#FAFAFA" shape-rendering="crispEdges"/>
<g filter="url(#filter3_d_881_3170)">
<rect x="305.727" y="379.874" width="23.3603" height="14.0162" rx="7.00808" fill="#FF75D8"/>
</g>
<path d="M175.154 264.812C155.52 264.812 138 279.974 138 279.974V370.529H418.323V245.529C418.323 245.529 409.213 234.871 394.806 231.42C368.839 225.199 365.214 270.614 342.402 270.614C325.647 270.614 324.489 242.237 302.148 239.65C279.806 237.064 269.728 302.23 233.712 301.495C206.732 300.945 190.327 264.812 175.154 264.812Z" fill="url(#paint4_linear_881_3170)"/>
<path d="M138.469 279.78C138.469 279.78 155.522 264.755 175.156 264.755C191.497 264.755 206.734 300.828 233.714 301.377C269.73 302.111 279.808 237.053 302.149 239.636C324.491 242.218 325.648 270.548 342.404 270.548C365.216 270.548 368.84 225.209 394.807 231.419C409.214 234.865 418.325 245.505 418.325 245.505" stroke="url(#paint5_linear_881_3170)" stroke-width="2.33603" stroke-linecap="round"/>
<path opacity="0.3" d="M298.719 209.344C298.719 204.183 302.902 200 308.063 200H326.751C331.912 200 336.095 204.183 336.095 209.344V370.53H298.719V209.344Z" fill="url(#paint6_linear_881_3170)"/>
<g filter="url(#filter4_d_881_3170)">
<circle cx="317.407" cy="246.253" r="11.6801" fill="url(#paint7_linear_881_3170)"/>
<circle cx="317.407" cy="246.253" r="10.2785" stroke="#FAFAFA" stroke-width="2.80323"/>
</g>
<path opacity="0.5" d="M158.953 388.677C159.728 388.677 160.185 388.22 160.185 387.443V384.661H159.572V387.437C159.572 387.889 159.353 388.13 158.948 388.13C158.581 388.13 158.392 387.894 158.367 387.593L158.365 387.569H157.76L157.762 387.601C157.795 388.231 158.222 388.677 158.953 388.677ZM161.642 388.664C162.022 388.664 162.356 388.466 162.523 388.157H162.534V388.612H163.128V386.627C163.128 386.049 162.682 385.677 161.978 385.677C161.269 385.677 160.839 386.057 160.798 386.553L160.796 386.583H161.354L161.36 386.558C161.409 386.328 161.62 386.167 161.962 386.167C162.329 386.167 162.534 386.359 162.534 386.676V386.892L161.751 386.939C161.069 386.98 160.681 387.287 160.681 387.788V387.793C160.681 388.31 161.067 388.664 161.642 388.664ZM161.277 387.779V387.774C161.277 387.53 161.475 387.374 161.83 387.352L162.534 387.308V387.533C162.534 387.908 162.219 388.19 161.803 388.19C161.485 388.19 161.277 388.031 161.277 387.779ZM163.703 388.612H164.294V386.933C164.294 386.484 164.562 386.183 164.979 386.183C165.389 386.183 165.592 386.427 165.592 386.859V388.612H166.186V386.747C166.186 386.085 165.822 385.677 165.189 385.677C164.754 385.677 164.458 385.874 164.308 386.167H164.294V385.732H163.703V388.612Z" fill="#454459"/>
<path d="M312.464 388.612V384.661H313.28L314.49 387.678H314.509L315.719 384.661H316.535V388.612H315.9V385.803H315.878L314.739 388.612H314.26L313.121 385.803H313.102V388.612H312.464ZM317.95 388.661C317.37 388.661 316.979 388.302 316.979 387.785V387.779C316.979 387.265 317.378 386.955 318.082 386.912L318.84 386.865V386.665C318.84 386.372 318.649 386.194 318.304 386.194C317.981 386.194 317.783 386.345 317.74 386.558L317.734 386.583H317.102L317.105 386.55C317.146 386.035 317.592 385.65 318.328 385.65C319.054 385.65 319.522 386.033 319.522 386.616V388.612H318.84V388.165H318.824C318.657 388.469 318.334 388.661 317.95 388.661ZM317.658 387.757C317.658 387.996 317.855 388.141 318.153 388.141C318.545 388.141 318.84 387.881 318.84 387.536V387.317L318.178 387.358C317.841 387.38 317.658 387.525 317.658 387.755V387.757ZM320.45 389.575C320.318 389.575 320.182 389.559 320.099 389.545V389.025C320.151 389.036 320.231 389.05 320.327 389.05C320.587 389.05 320.732 388.976 320.819 388.732L320.86 388.614L319.817 385.71H320.562L321.241 388.031H321.26L321.942 385.71H322.659L321.616 388.71C321.394 389.348 321.055 389.575 320.45 389.575Z" fill="#FAFAFA"/>
<path opacity="0.5" d="M195.974 388.612H196.587V386.958H198.284V386.441H196.587V385.19H198.44V384.661H195.974V388.612ZM200.034 388.669C200.732 388.669 201.175 388.253 201.268 387.796L201.274 387.766H200.713L200.704 387.788C200.63 388.004 200.398 388.184 200.047 388.184C199.577 388.184 199.278 387.867 199.267 387.322H201.307V387.122C201.307 386.257 200.811 385.677 200.004 385.677C199.196 385.677 198.676 386.279 198.676 387.18V387.183C198.676 388.091 199.188 388.669 200.034 388.669ZM200.006 386.161C200.392 386.161 200.672 386.405 200.721 386.903H199.275C199.327 386.421 199.623 386.161 200.006 386.161ZM203.297 388.669C204.028 388.669 204.501 388.089 204.501 387.172V387.169C204.501 386.252 204.025 385.677 203.302 385.677C202.894 385.677 202.566 385.882 202.393 386.222H202.38V384.661H201.788V388.612H202.38V388.124H202.393C202.563 388.461 202.883 388.669 203.297 388.669ZM203.141 388.16C202.692 388.16 202.377 387.771 202.377 387.172V387.169C202.377 386.572 202.695 386.183 203.141 386.183C203.606 386.183 203.896 386.561 203.896 387.169V387.172C203.896 387.785 203.606 388.16 203.141 388.16Z" fill="#454459"/>
<path opacity="0.5" d="M235.287 388.612H235.845V385.696H235.864L237.055 388.612H237.51L238.7 385.696H238.72V388.612H239.278V384.661H238.572L237.291 387.815H237.274L235.996 384.661H235.287V388.612ZM240.704 388.664C241.085 388.664 241.419 388.466 241.586 388.157H241.597V388.612H242.191V386.627C242.191 386.049 241.744 385.677 241.041 385.677C240.332 385.677 239.902 386.057 239.861 386.553L239.858 386.583H240.417L240.422 386.558C240.472 386.328 240.682 386.167 241.025 386.167C241.391 386.167 241.597 386.359 241.597 386.676V386.892L240.814 386.939C240.132 386.98 239.743 387.287 239.743 387.788V387.793C239.743 388.31 240.129 388.664 240.704 388.664ZM240.34 387.779V387.774C240.34 387.53 240.537 387.374 240.893 387.352L241.597 387.308V387.533C241.597 387.908 241.282 388.19 240.866 388.19C240.548 388.19 240.34 388.031 240.34 387.779ZM242.766 388.612H243.357V386.895C243.357 386.465 243.592 386.216 243.973 386.216C244.088 386.216 244.192 386.23 244.238 386.249V385.699C244.192 385.691 244.118 385.677 244.033 385.677C243.705 385.677 243.464 385.888 243.371 386.224H243.357V385.732H242.766V388.612Z" fill="#454459"/>
<path opacity="0.5" d="M354.379 388.677C355.153 388.677 355.61 388.22 355.61 387.443V384.661H354.997V387.437C354.997 387.889 354.778 388.13 354.373 388.13C354.006 388.13 353.817 387.894 353.793 387.593L353.79 387.569H353.185L353.188 387.601C353.221 388.231 353.648 388.677 354.379 388.677ZM357.256 388.669C357.694 388.669 357.987 388.469 358.137 388.179H358.151V388.612H358.745V385.732H358.151V387.412C358.151 387.861 357.883 388.16 357.466 388.16C357.056 388.16 356.853 387.919 356.853 387.484V385.732H356.262V387.599C356.262 388.261 356.623 388.669 357.256 388.669ZM359.331 388.612H359.922V386.933C359.922 386.484 360.19 386.183 360.606 386.183C361.017 386.183 361.22 386.427 361.22 386.859V388.612H361.814V386.747C361.814 386.085 361.45 385.677 360.817 385.677C360.382 385.677 360.086 385.874 359.936 386.167H359.922V385.732H359.331V388.612Z" fill="#454459"/>
<path opacity="0.5" d="M274.123 388.612H274.766L275.13 387.544H276.652L277.014 388.612H277.657L276.223 384.661H275.56L274.123 388.612ZM275.886 385.316H275.897L276.486 387.051H275.295L275.886 385.316ZM278.024 389.57H278.615V388.127H278.629C278.799 388.461 279.13 388.669 279.538 388.669C280.261 388.669 280.734 388.091 280.734 387.174V387.172C280.734 386.252 280.263 385.677 279.53 385.677C279.119 385.677 278.801 385.885 278.629 386.227H278.615V385.732H278.024V389.57ZM279.376 388.16C278.93 388.16 278.613 387.771 278.613 387.174V387.172C278.613 386.572 278.927 386.183 279.376 386.183C279.839 386.183 280.132 386.558 280.132 387.172V387.174C280.132 387.782 279.842 388.16 279.376 388.16ZM281.194 388.612H281.785V386.895C281.785 386.465 282.021 386.216 282.401 386.216C282.516 386.216 282.62 386.23 282.667 386.249V385.699C282.62 385.691 282.546 385.677 282.462 385.677C282.133 385.677 281.892 385.888 281.799 386.224H281.785V385.732H281.194V388.612Z" fill="#454459"/>
<path opacity="0.5" d="M392.674 388.677C393.448 388.677 393.906 388.22 393.906 387.443V384.661H393.292V387.437C393.292 387.889 393.073 388.13 392.668 388.13C392.301 388.13 392.113 387.894 392.088 387.593L392.085 387.569H391.48L391.483 387.601C391.516 388.231 391.943 388.677 392.674 388.677ZM395.551 388.669C395.989 388.669 396.282 388.469 396.432 388.179H396.446V388.612H397.04V385.732H396.446V387.412C396.446 387.861 396.178 388.16 395.762 388.16C395.351 388.16 395.148 387.919 395.148 387.484V385.732H394.557V387.599C394.557 388.261 394.918 388.669 395.551 388.669ZM397.648 388.612H398.239V384.661H397.648V388.612Z" fill="#454459"/>
<path opacity="0.1" d="M138 370.53H418.323" stroke="#454459" stroke-width="0.467205"/>
</g>
<g filter="url(#filter5_d_881_3170)">
<rect x="25" y="64" width="225.474" height="200.02" rx="32" fill="#FAFAFA" shape-rendering="crispEdges"/>
<rect opacity="0.2" x="50" y="89" width="13.498" height="138.836" rx="3.85656" fill="#A08CFB"/>
<rect x="50" y="153.019" width="13.498" height="74.8173" rx="3.85656" fill="url(#paint8_linear_881_3170)"/>
<rect x="50" y="180.401" width="13.498" height="47.4357" rx="3.85656" fill="url(#paint9_linear_881_3170)"/>
<rect opacity="0.2" x="130.988" y="89.0001" width="13.498" height="138.836" rx="3.85656" fill="#A08CFB"/>
<rect x="130.988" y="147.234" width="13.498" height="80.6022" rx="3.85656" fill="url(#paint10_linear_881_3170)"/>
<rect x="130.988" y="176.544" width="13.498" height="51.2923" rx="3.85656" fill="url(#paint11_linear_881_3170)"/>
<rect opacity="0.2" x="76.9961" y="89.0001" width="13.498" height="138.836" rx="3.85656" fill="#A08CFB"/>
<rect x="76.9961" y="135.279" width="13.498" height="92.5575" rx="3.85656" fill="url(#paint12_linear_881_3170)"/>
<rect x="76.9961" y="169.217" width="13.498" height="58.6198" rx="3.85656" fill="url(#paint13_linear_881_3170)"/>
<rect opacity="0.2" x="157.984" y="89.0001" width="13.498" height="138.836" rx="3.85656" fill="#A08CFB"/>
<rect x="157.984" y="126.023" width="13.498" height="101.813" rx="3.85656" fill="url(#paint14_linear_881_3170)"/>
<rect x="157.984" y="163.432" width="13.498" height="64.4046" rx="3.85656" fill="url(#paint15_linear_881_3170)"/>
<rect opacity="0.2" x="103.992" y="89.0001" width="13.498" height="138.836" rx="3.85656" fill="#A08CFB"/>
<rect x="103.992" y="169.217" width="13.498" height="58.6198" rx="3.85656" fill="url(#paint16_linear_881_3170)"/>
<rect x="103.992" y="190.813" width="13.498" height="37.023" rx="3.85656" fill="url(#paint17_linear_881_3170)"/>
<rect opacity="0.2" x="184.98" y="89.0001" width="13.498" height="138.836" rx="3.85656" fill="#A08CFB"/>
<rect x="184.98" y="187.342" width="13.498" height="40.4939" rx="3.85656" fill="url(#paint18_linear_881_3170)"/>
<rect x="184.98" y="201.997" width="13.498" height="25.839" rx="3.85656" fill="url(#paint19_linear_881_3170)"/>
<rect opacity="0.2" x="211.977" y="89.0001" width="13.498" height="138.836" rx="3.85656" fill="#A08CFB"/>
<rect x="211.977" y="153.019" width="13.498" height="74.8173" rx="3.85656" fill="url(#paint20_linear_881_3170)"/>
<rect x="211.977" y="180.401" width="13.498" height="47.4357" rx="3.85656" fill="url(#paint21_linear_881_3170)"/>
<path opacity="0.5" d="M52.3861 237.621H52.8471V235.215H52.8629L53.8459 237.621H54.221L55.204 235.215H55.2198V237.621H55.6808V234.36H55.0978L54.0403 236.964H54.0267L52.9714 234.36H52.3861V237.621ZM57.2445 237.669C57.9247 237.669 58.3721 237.199 58.3721 236.433V236.428C58.3721 235.667 57.9202 235.199 57.2423 235.199C56.5666 235.199 56.1169 235.669 56.1169 236.428V236.433C56.1169 237.196 56.5621 237.669 57.2445 237.669ZM57.2468 237.26C56.8649 237.26 56.6163 236.959 56.6163 236.433V236.428C56.6163 235.908 56.8671 235.608 57.2423 235.608C57.6241 235.608 57.8727 235.908 57.8727 236.428V236.433C57.8727 236.957 57.6287 237.26 57.2468 237.26ZM58.7495 237.621H59.2376V236.236C59.2376 235.865 59.459 235.617 59.8025 235.617C60.1415 235.617 60.3087 235.818 60.3087 236.175V237.621H60.799V236.082C60.799 235.535 60.4985 235.199 59.9765 235.199C59.6172 235.199 59.3732 235.361 59.2489 235.603H59.2376V235.244H58.7495V237.621Z" fill="#454459"/>
<path opacity="0.5" d="M162.53 237.621H163.036V236.256H164.437V235.829H163.036V234.797H164.566V234.36H162.53V237.621ZM164.948 237.621H165.436V236.204C165.436 235.85 165.63 235.644 165.945 235.644C166.039 235.644 166.125 235.655 166.164 235.671V235.217C166.125 235.21 166.064 235.199 165.994 235.199C165.723 235.199 165.524 235.373 165.447 235.651H165.436V235.244H164.948V237.621ZM166.731 234.878C166.891 234.878 167.016 234.751 167.016 234.598C167.016 234.442 166.891 234.315 166.731 234.315C166.573 234.315 166.446 234.442 166.446 234.598C166.446 234.751 166.573 234.878 166.731 234.878ZM166.487 237.621H166.975V235.244H166.487V237.621Z" fill="#454459"/>
<path opacity="0.5" d="M81.2262 237.621H81.7324V234.797H82.7289V234.36H80.2274V234.797H81.2262V237.621ZM83.4588 237.669C83.8203 237.669 84.0621 237.504 84.1864 237.264H84.1977V237.621H84.6881V235.244H84.1977V236.631C84.1977 237.002 83.9763 237.248 83.6328 237.248C83.2938 237.248 83.1266 237.049 83.1266 236.69V235.244H82.6385V236.785C82.6385 237.332 82.9368 237.669 83.4588 237.669ZM86.1862 237.669C86.7625 237.669 87.1285 237.325 87.2054 236.948L87.2099 236.923H86.7467L86.7399 236.941C86.6789 237.12 86.4868 237.269 86.1975 237.269C85.8089 237.269 85.5626 237.007 85.5535 236.557H87.237V236.392C87.237 235.678 86.828 235.199 86.1614 235.199C85.4948 235.199 85.0654 235.696 85.0654 236.439V236.442C85.0654 237.192 85.488 237.669 86.1862 237.669ZM86.1637 235.599C86.4823 235.599 86.7128 235.8 86.7534 236.211H85.5603C85.6032 235.813 85.8473 235.599 86.1637 235.599Z" fill="#454459"/>
<path opacity="0.5" d="M106.943 237.621H107.429L108.132 235.163H108.143L108.844 237.621H109.33L110.211 234.36H109.684L109.076 236.916H109.065L108.376 234.36H107.897L107.208 236.916H107.199L106.591 234.36H106.064L106.943 237.621ZM111.311 237.669C111.887 237.669 112.254 237.325 112.33 236.948L112.335 236.923H111.872L111.865 236.941C111.804 237.12 111.612 237.269 111.323 237.269C110.934 237.269 110.688 237.007 110.679 236.557H112.362V236.392C112.362 235.678 111.953 235.199 111.286 235.199C110.62 235.199 110.19 235.696 110.19 236.439V236.442C110.19 237.192 110.613 237.669 111.311 237.669ZM111.289 235.599C111.607 235.599 111.838 235.8 111.878 236.211H110.685C110.728 235.813 110.972 235.599 111.289 235.599ZM113.63 237.669C113.971 237.669 114.233 237.497 114.375 237.219H114.384V237.621H114.875V234.36H114.384V235.648H114.375C114.233 235.368 113.962 235.199 113.625 235.199C113.029 235.199 112.635 235.673 112.635 236.43V236.433C112.635 237.19 113.024 237.669 113.63 237.669ZM113.759 237.248C113.372 237.248 113.135 236.939 113.135 236.433V236.43C113.135 235.929 113.374 235.617 113.759 235.617C114.125 235.617 114.387 235.938 114.387 236.43V236.433C114.387 236.927 114.127 237.248 113.759 237.248Z" fill="#454459"/>
<path opacity="0.5" d="M189.601 237.675C190.374 237.675 190.844 237.298 190.844 236.704V236.702C190.844 236.198 190.554 235.924 189.881 235.782L189.524 235.707C189.117 235.619 188.932 235.47 188.932 235.226V235.224C188.932 234.939 189.189 234.747 189.594 234.745C189.98 234.745 190.243 234.928 190.288 235.23L190.29 235.262H190.783L190.78 235.224C190.746 234.677 190.281 234.306 189.601 234.306C188.912 234.306 188.421 234.688 188.419 235.244V235.246C188.419 235.73 188.728 236.024 189.368 236.159L189.723 236.234C190.154 236.329 190.333 236.471 190.333 236.733V236.735C190.333 237.04 190.057 237.237 189.621 237.237C189.185 237.237 188.884 237.049 188.839 236.749L188.835 236.72H188.342L188.344 236.753C188.385 237.327 188.869 237.675 189.601 237.675ZM191.94 237.664C192.254 237.664 192.529 237.501 192.667 237.246H192.676V237.621H193.167V235.983C193.167 235.506 192.798 235.199 192.217 235.199C191.632 235.199 191.277 235.513 191.244 235.922L191.241 235.947H191.702L191.707 235.926C191.747 235.737 191.921 235.603 192.204 235.603C192.507 235.603 192.676 235.761 192.676 236.024V236.202L192.03 236.241C191.467 236.274 191.146 236.528 191.146 236.941V236.946C191.146 237.373 191.465 237.664 191.94 237.664ZM191.639 236.934V236.93C191.639 236.729 191.802 236.6 192.095 236.582L192.676 236.546V236.731C192.676 237.04 192.416 237.273 192.073 237.273C191.811 237.273 191.639 237.142 191.639 236.934ZM194.475 237.669C194.574 237.669 194.667 237.657 194.723 237.648V237.271C194.687 237.275 194.644 237.28 194.592 237.28C194.387 237.28 194.278 237.208 194.278 236.966V235.633H194.723V235.244H194.278V234.625H193.779V235.244H193.438V235.633H193.779V236.995C193.779 237.47 194.005 237.669 194.475 237.669Z" fill="#454459"/>
<path opacity="0.5" d="M134.937 237.621H135.443V234.797H136.44V234.36H133.938V234.797H134.937V237.621ZM136.813 237.621H137.301V236.245C137.301 235.874 137.524 235.617 137.861 235.617C138.205 235.617 138.404 235.852 138.404 236.245V237.621H138.892V236.152C138.892 235.578 138.557 235.199 138.049 235.199C137.694 235.199 137.439 235.359 137.312 235.635H137.301V234.36H136.813V237.621ZM140.175 237.669C140.537 237.669 140.778 237.504 140.903 237.264H140.914V237.621H141.404V235.244H140.914V236.631C140.914 237.002 140.693 237.248 140.349 237.248C140.01 237.248 139.843 237.049 139.843 236.69V235.244H139.355V236.785C139.355 237.332 139.653 237.669 140.175 237.669Z" fill="#454459"/>
<path opacity="0.5" d="M216.21 237.675C216.983 237.675 217.453 237.298 217.453 236.704V236.702C217.453 236.198 217.164 235.924 216.49 235.782L216.133 235.707C215.727 235.619 215.541 235.47 215.541 235.226V235.224C215.541 234.939 215.799 234.747 216.203 234.745C216.59 234.745 216.852 234.928 216.897 235.23L216.899 235.262H217.392L217.39 235.224C217.356 234.677 216.89 234.306 216.21 234.306C215.521 234.306 215.031 234.688 215.028 235.244V235.246C215.028 235.73 215.338 236.024 215.977 236.159L216.332 236.234C216.764 236.329 216.942 236.471 216.942 236.733V236.735C216.942 237.04 216.667 237.237 216.23 237.237C215.794 237.237 215.494 237.049 215.449 236.749L215.444 236.72H214.951L214.954 236.753C214.994 237.327 215.478 237.675 216.21 237.675ZM218.66 237.669C219.021 237.669 219.263 237.504 219.387 237.264H219.399V237.621H219.889V235.244H219.399V236.631C219.399 237.002 219.177 237.248 218.834 237.248C218.495 237.248 218.327 237.049 218.327 236.69V235.244H217.839V236.785C217.839 237.332 218.138 237.669 218.66 237.669ZM220.372 237.621H220.861V236.236C220.861 235.865 221.082 235.617 221.426 235.617C221.764 235.617 221.932 235.818 221.932 236.175V237.621H222.422V236.082C222.422 235.535 222.122 235.199 221.6 235.199C221.24 235.199 220.996 235.361 220.872 235.603H220.861V235.244H220.372V237.621Z" fill="#454459"/>
</g>
<g filter="url(#filter6_d_881_3170)">
<rect x="365" y="311" width="176" height="176" rx="24.9204" fill="#FAFAFA" shape-rendering="crispEdges"/>
<path d="M513.232 399C513.232 385.092 508.419 371.613 499.61 360.851C490.801 350.088 478.539 342.706 464.906 339.957L453.001 399H513.232Z" fill="url(#paint22_linear_881_3170)"/>
<path d="M500.457 427.514C505.313 419.432 508.025 410.243 508.335 400.819L453.001 399L500.457 427.514Z" fill="url(#paint23_linear_881_3170)"/>
<path d="M440.462 463.499C453.269 465.989 466.526 464.609 478.546 459.537C490.566 454.465 500.803 445.929 507.955 435.018L453 399L440.462 463.499Z" fill="url(#paint24_linear_881_3170)"/>
<path d="M407.544 438.515C415.985 448.225 427.313 454.978 439.87 457.782L453.001 399L407.544 438.515Z" fill="url(#paint25_linear_881_3170)"/>
<path d="M464.884 331.595C451.146 329.173 436.995 331.006 424.327 336.85C411.66 342.694 401.08 352.27 394.007 364.294C386.933 376.318 383.702 390.216 384.747 404.128C385.792 418.039 391.063 431.299 399.855 442.131L452.999 399L464.884 331.595Z" fill="url(#paint26_linear_881_3170)"/>
<g filter="url(#filter7_d_881_3170)">
<circle cx="453" cy="399" r="41.0667" fill="#FAFAFA"/>
</g>
<circle opacity="0.05" cx="453" cy="399" r="36.1995" stroke="#454459" stroke-width="0.608398"/>
<path d="M438.055 401.562H438.825V400.364C440.75 400.25 442.183 399.223 442.183 397.455V397.441C442.183 395.915 441.192 395.124 439.26 394.689L438.825 394.596V391.837C439.709 391.944 440.286 392.429 440.393 393.206L440.401 393.27H442.062L442.055 393.156C441.926 391.559 440.671 390.532 438.825 390.404V389.206H438.055V390.404C436.151 390.525 434.832 391.609 434.832 393.227V393.242C434.832 394.717 435.802 395.566 437.656 395.979L438.055 396.065V398.938C436.95 398.824 436.451 398.275 436.322 397.562L436.308 397.484H434.647L434.654 397.584C434.768 399.231 436.144 400.25 438.055 400.364V401.562ZM436.551 393.113V393.106C436.551 392.493 437.064 391.937 438.055 391.83V394.425C436.964 394.176 436.551 393.741 436.551 393.113ZM440.472 397.598V397.612C440.472 398.318 439.987 398.86 438.825 398.945V396.236C440.101 396.528 440.472 396.928 440.472 397.598ZM448.721 400.528H450.475V398.553H451.872V397.042H450.475V390.24H447.858L443.588 396.985V398.553H448.721V400.528ZM445.242 397.085V397.035L448.707 391.63H448.749V397.085H445.242ZM456.849 400.706C459.123 400.706 460.713 399.252 460.713 397.134V397.12C460.713 395.167 459.301 393.748 457.341 393.748C456.307 393.748 455.458 394.154 455.009 394.846H454.974L455.259 391.744H460.107V390.24H453.79L453.298 396.222H454.902C455.023 395.994 455.195 395.794 455.387 395.637C455.779 395.309 456.285 395.131 456.87 395.131C458.075 395.131 458.938 395.972 458.938 397.149V397.163C458.938 398.368 458.089 399.209 456.863 399.209C455.779 399.209 454.995 398.546 454.845 397.683L454.838 397.633H453.113L453.12 397.726C453.255 399.43 454.71 400.706 456.849 400.706ZM461.961 400.528H469.19V399.024H464.392V398.945L466.659 396.792C468.47 395.053 469.033 394.233 469.033 393.021V393.006C469.033 391.309 467.593 390.062 465.533 390.062C463.444 390.062 461.861 391.409 461.861 393.292V393.341H463.586V393.292C463.608 392.301 464.406 391.538 465.547 391.538C466.538 391.538 467.229 392.194 467.237 393.113V393.128C467.237 393.89 466.944 394.411 465.597 395.73L461.961 399.273V400.528Z" fill="#454459"/>
<path opacity="0.7" d="M442.561 410.439C443.17 410.439 443.611 410.105 443.611 409.632V409.629C443.611 409.239 443.4 409.022 442.847 408.888L442.427 408.79C442.061 408.701 441.911 408.56 441.911 408.338V408.335C441.911 408.052 442.162 407.856 442.539 407.856C442.927 407.856 443.173 408.068 443.218 408.391L443.221 408.41H443.561L443.558 408.38C443.512 407.902 443.133 407.557 442.539 407.557C441.959 407.557 441.55 407.886 441.55 408.348V408.351C441.55 408.736 441.801 408.966 442.325 409.092L442.745 409.193C443.117 409.281 443.25 409.412 443.25 409.653V409.656C443.25 409.947 442.983 410.14 442.563 410.14C442.144 410.14 441.884 409.931 441.828 409.61L441.823 409.586H441.47L441.472 409.61C441.526 410.102 441.93 410.439 442.561 410.439ZM445.213 410.439C445.814 410.439 446.258 410.094 446.355 409.618L446.36 409.592H446.01L446.004 409.616C445.913 409.918 445.63 410.124 445.221 410.124C444.673 410.124 444.317 409.747 444.307 409.084H446.395V408.945C446.395 408.113 445.927 407.557 445.183 407.557C444.44 407.557 443.948 408.132 443.948 409.003V409.006C443.948 409.886 444.432 410.439 445.213 410.439ZM445.181 407.872C445.657 407.872 445.999 408.196 446.039 408.803H444.312C444.355 408.212 444.708 407.872 445.181 407.872ZM446.868 411.324H447.221V409.808H447.231C447.384 410.18 447.737 410.439 448.181 410.439C448.878 410.439 449.354 409.872 449.354 409.001V408.998C449.354 408.129 448.881 407.557 448.175 407.557C447.729 407.557 447.387 407.819 447.231 408.196H447.221V407.608H446.868V411.324ZM448.114 410.124C447.592 410.124 447.221 409.672 447.221 409.001V408.998C447.221 408.324 447.59 407.872 448.114 407.872C448.648 407.872 448.993 408.311 448.993 408.998V409.001C448.993 409.683 448.648 410.124 448.114 410.124ZM450.659 410.439C450.745 410.439 450.836 410.428 450.892 410.418V410.129C450.852 410.134 450.795 410.142 450.731 410.142C450.472 410.142 450.341 410.038 450.341 409.731V407.905H450.892V407.608H450.341V406.857H449.977V407.608H449.568V407.905H449.977V409.736C449.977 410.223 450.202 410.439 450.659 410.439ZM452.416 410.439C453.017 410.439 453.461 410.094 453.557 409.618L453.563 409.592H453.212L453.207 409.616C453.116 409.918 452.833 410.124 452.424 410.124C451.876 410.124 451.52 409.747 451.509 409.084H453.597V408.945C453.597 408.113 453.129 407.557 452.386 407.557C451.643 407.557 451.151 408.132 451.151 409.003V409.006C451.151 409.886 451.635 410.439 452.416 410.439ZM452.384 407.872C452.859 407.872 453.202 408.196 453.242 408.803H451.515C451.557 408.212 451.91 407.872 452.384 407.872ZM454.071 410.388H454.424V408.68C454.424 408.204 454.718 407.875 455.127 407.875C455.506 407.875 455.763 408.137 455.763 408.536V410.388H456.119V408.637C456.119 408.191 456.402 407.875 456.814 407.875C457.217 407.875 457.458 408.135 457.458 408.568V410.388H457.811V408.487C457.811 407.923 457.455 407.56 456.91 407.56C456.488 407.56 456.169 407.803 456.036 408.148H456.028C455.923 407.795 455.629 407.56 455.223 407.56C454.833 407.56 454.549 407.779 454.434 408.086H454.424V407.608H454.071V410.388ZM459.744 410.439C460.445 410.439 460.92 409.867 460.92 408.998V408.995C460.92 408.126 460.442 407.557 459.747 407.557C459.311 407.557 458.953 407.803 458.795 408.188H458.787V406.53H458.431V410.388H458.787V409.8H458.795C458.955 410.193 459.306 410.439 459.744 410.439ZM459.677 410.124C459.153 410.124 458.784 409.669 458.784 408.998V408.995C458.784 408.327 459.158 407.872 459.677 407.872C460.212 407.872 460.557 408.314 460.557 408.995V408.998C460.557 409.685 460.212 410.124 459.677 410.124ZM462.517 410.439C463.118 410.439 463.562 410.094 463.658 409.618L463.664 409.592H463.313L463.308 409.616C463.217 409.918 462.934 410.124 462.525 410.124C461.976 410.124 461.621 409.747 461.61 409.084H463.698V408.945C463.698 408.113 463.23 407.557 462.487 407.557C461.744 407.557 461.252 408.132 461.252 409.003V409.006C461.252 409.886 461.736 410.439 462.517 410.439ZM462.484 407.872C462.96 407.872 463.303 408.196 463.343 408.803H461.616C461.658 408.212 462.011 407.872 462.484 407.872ZM464.172 410.388H464.524V408.667C464.524 408.196 464.776 407.897 465.171 407.897C465.292 407.897 465.391 407.915 465.436 407.934V407.589C465.393 407.576 465.31 407.557 465.217 407.557C464.88 407.557 464.634 407.768 464.535 408.108H464.524V407.608H464.172V410.388Z" fill="#454459"/>
</g>
<defs>
<filter id="filter0_d_881_3170" x="178.18" y="0.811269" width="352.667" height="288.3" filterUnits="userSpaceOnUse" color-interpolation-filters="sRGB">
<feFlood flood-opacity="0" result="BackgroundImageFix"/>
<feColorMatrix in="SourceAlpha" type="matrix" values="0 0 0 0 0 0 0 0 0 0 0 0 0 0 0 0 0 0 127 0" result="hardAlpha"/>
<feOffset dy="9.63124"/>
<feGaussianBlur stdDeviation="15.41"/>
<feComposite in2="hardAlpha" operator="out"/>
<feColorMatrix type="matrix" values="0 0 0 0 0.545163 0 0 0 0 0.583289 0 0 0 0 0.653825 0 0 0 0.3 0"/>
<feBlend mode="normal" in2="BackgroundImageFix" result="effect1_dropShadow_881_3170"/>
<feBlend mode="normal" in="SourceGraphic" in2="effect1_dropShadow_881_3170" result="shape"/>
</filter>
<filter id="filter1_d_881_3170" x="336.781" y="51.2405" width="34.5093" height="34.5077" filterUnits="userSpaceOnUse" color-interpolation-filters="sRGB">
<feFlood flood-opacity="0" result="BackgroundImageFix"/>
<feColorMatrix in="SourceAlpha" type="matrix" values="0 0 0 0 0 0 0 0 0 0 0 0 0 0 0 0 0 0 127 0" result="hardAlpha"/>
<feOffset dy="1.9228"/>
<feGaussianBlur stdDeviation="4.80701"/>
<feColorMatrix type="matrix" values="0 0 0 0 0 0 0 0 0 0 0 0 0 0 0 0 0 0 0.1 0"/>
<feBlend mode="normal" in2="BackgroundImageFix" result="effect1_dropShadow_881_3170"/>
<feBlend mode="normal" in="SourceGraphic" in2="effect1_dropShadow_881_3170" result="shape"/>
</filter>
<filter id="filter2_d_881_3170" x="74" y="146" width="408.324" height="321.89" filterUnits="userSpaceOnUse" color-interpolation-filters="sRGB">
<feFlood flood-opacity="0" result="BackgroundImageFix"/>
<feColorMatrix in="SourceAlpha" type="matrix" values="0 0 0 0 0 0 0 0 0 0 0 0 0 0 0 0 0 0 127 0" result="hardAlpha"/>
<feOffset dy="10"/>
<feGaussianBlur stdDeviation="16"/>
<feComposite in2="hardAlpha" operator="out"/>
<feColorMatrix type="matrix" values="0 0 0 0 0.545163 0 0 0 0 0.583289 0 0 0 0 0.653825 0 0 0 0.3 0"/>
<feBlend mode="normal" in2="BackgroundImageFix" result="effect1_dropShadow_881_3170"/>
<feBlend mode="normal" in="SourceGraphic" in2="effect1_dropShadow_881_3170" result="shape"/>
</filter>
<filter id="filter3_d_881_3170" x="294.046" y="370.53" width="46.7196" height="37.3764" filterUnits="userSpaceOnUse" color-interpolation-filters="sRGB">
<feFlood flood-opacity="0" result="BackgroundImageFix"/>
<feColorMatrix in="SourceAlpha" type="matrix" values="0 0 0 0 0 0 0 0 0 0 0 0 0 0 0 0 0 0 127 0" result="hardAlpha"/>
<feOffset dy="2.33603"/>
<feGaussianBlur stdDeviation="5.84007"/>
<feColorMatrix type="matrix" values="0 0 0 0 0 0 0 0 0 0 0 0 0 0 0 0 0 0 0.1 0"/>
<feBlend mode="normal" in2="BackgroundImageFix" result="effect1_dropShadow_881_3170"/>
<feBlend mode="normal" in="SourceGraphic" in2="effect1_dropShadow_881_3170" result="shape"/>
</filter>
<filter id="filter4_d_881_3170" x="294.046" y="225.229" width="46.7196" height="46.7205" filterUnits="userSpaceOnUse" color-interpolation-filters="sRGB">
<feFlood flood-opacity="0" result="BackgroundImageFix"/>
<feColorMatrix in="SourceAlpha" type="matrix" values="0 0 0 0 0 0 0 0 0 0 0 0 0 0 0 0 0 0 127 0" result="hardAlpha"/>
<feOffset dy="2.33603"/>
<feGaussianBlur stdDeviation="5.84007"/>
<feColorMatrix type="matrix" values="0 0 0 0 0 0 0 0 0 0 0 0 0 0 0 0 0 0 0.1 0"/>
<feBlend mode="normal" in2="BackgroundImageFix" result="effect1_dropShadow_881_3170"/>
<feBlend mode="normal" in="SourceGraphic" in2="effect1_dropShadow_881_3170" result="shape"/>
</filter>
<filter id="filter5_d_881_3170" x="0" y="46.8125" width="275.473" height="250.02" filterUnits="userSpaceOnUse" color-interpolation-filters="sRGB">
<feFlood flood-opacity="0" result="BackgroundImageFix"/>
<feColorMatrix in="SourceAlpha" type="matrix" values="0 0 0 0 0 0 0 0 0 0 0 0 0 0 0 0 0 0 127 0" result="hardAlpha"/>
<feOffset dy="7.8125"/>
<feGaussianBlur stdDeviation="12.5"/>
<feComposite in2="hardAlpha" operator="out"/>
<feColorMatrix type="matrix" values="0 0 0 0 0.545163 0 0 0 0 0.583289 0 0 0 0 0.653825 0 0 0 0.3 0"/>
<feBlend mode="normal" in2="BackgroundImageFix" result="effect1_dropShadow_881_3170"/>
<feBlend mode="normal" in="SourceGraphic" in2="effect1_dropShadow_881_3170" result="shape"/>
</filter>
<filter id="filter6_d_881_3170" x="345.444" y="297.556" width="215.111" height="215.111" filterUnits="userSpaceOnUse" color-interpolation-filters="sRGB">
<feFlood flood-opacity="0" result="BackgroundImageFix"/>
<feColorMatrix in="SourceAlpha" type="matrix" values="0 0 0 0 0 0 0 0 0 0 0 0 0 0 0 0 0 0 127 0" result="hardAlpha"/>
<feOffset dy="6.11111"/>
<feGaussianBlur stdDeviation="9.77778"/>
<feComposite in2="hardAlpha" operator="out"/>
<feColorMatrix type="matrix" values="0 0 0 0 0.545163 0 0 0 0 0.583289 0 0 0 0 0.653825 0 0 0 0.3 0"/>
<feBlend mode="normal" in2="BackgroundImageFix" result="effect1_dropShadow_881_3170"/>
<feBlend mode="normal" in="SourceGraphic" in2="effect1_dropShadow_881_3170" result="shape"/>
</filter>
<filter id="filter7_d_881_3170" x="404.329" y="351.849" width="97.3428" height="97.3433" filterUnits="userSpaceOnUse" color-interpolation-filters="sRGB">
<feFlood flood-opacity="0" result="BackgroundImageFix"/>
<feColorMatrix in="SourceAlpha" type="matrix" values="0 0 0 0 0 0 0 0 0 0 0 0 0 0 0 0 0 0 127 0" result="hardAlpha"/>
<feOffset dy="1.52099"/>
<feGaussianBlur stdDeviation="3.80249"/>
<feColorMatrix type="matrix" values="0 0 0 0 0 0 0 0 0 0 0 0 0 0 0 0 0 0 0.1 0"/>
<feBlend mode="normal" in2="BackgroundImageFix" result="effect1_dropShadow_881_3170"/>
<feBlend mode="normal" in="SourceGraphic" in2="effect1_dropShadow_881_3170" result="shape"/>
</filter>
<linearGradient id="paint0_linear_881_3170" x1="354.514" y1="66.3875" x2="354.514" y2="206.763" gradientUnits="userSpaceOnUse">
<stop stop-color="#FF9364" stop-opacity="0.3"/>
<stop offset="1" stop-color="#F25F33" stop-opacity="0"/>
</linearGradient>
<linearGradient id="paint1_linear_881_3170" x1="354.514" y1="66.3875" x2="354.514" y2="141.254" gradientUnits="userSpaceOnUse">
<stop stop-color="#FF9364"/>
<stop offset="1" stop-color="#F25F33"/>
</linearGradient>
<linearGradient id="paint2_linear_881_3170" x1="354.513" y1="87.9525" x2="354.513" y2="125.91" gradientUnits="userSpaceOnUse">
<stop stop-color="#B09FFF"/>
<stop offset="1" stop-color="#8D79F6"/>
</linearGradient>
<linearGradient id="paint3_linear_881_3170" x1="354.034" y1="58.9317" x2="354.034" y2="74.2114" gradientUnits="userSpaceOnUse">
<stop stop-color="#FF9364"/>
<stop offset="1" stop-color="#F25F33"/>
</linearGradient>
<linearGradient id="paint4_linear_881_3170" x1="278.162" y1="230.835" x2="278.162" y2="370.529" gradientUnits="userSpaceOnUse">
<stop stop-color="#B09FFF" stop-opacity="0.3"/>
<stop offset="1" stop-color="#8D79F6" stop-opacity="0"/>
</linearGradient>
<linearGradient id="paint5_linear_881_3170" x1="278.397" y1="230.835" x2="278.397" y2="301.384" gradientUnits="userSpaceOnUse">
<stop stop-color="#B09FFF"/>
<stop offset="1" stop-color="#8D79F6"/>
</linearGradient>
<linearGradient id="paint6_linear_881_3170" x1="317.407" y1="200" x2="317.407" y2="370.53" gradientUnits="userSpaceOnUse">
<stop stop-color="#B09FFF" stop-opacity="0.15"/>
<stop offset="1" stop-color="#8D79F6"/>
</linearGradient>
<linearGradient id="paint7_linear_881_3170" x1="317.407" y1="234.573" x2="317.407" y2="257.934" gradientUnits="userSpaceOnUse">
<stop stop-color="#FD95D3"/>
<stop offset="1" stop-color="#FF5CBE"/>
</linearGradient>
<linearGradient id="paint8_linear_881_3170" x1="56.749" y1="153.019" x2="56.749" y2="227.836" gradientUnits="userSpaceOnUse">
<stop stop-color="#B09FFF"/>
<stop offset="1" stop-color="#8D79F6"/>
</linearGradient>
<linearGradient id="paint9_linear_881_3170" x1="56.749" y1="180.401" x2="56.749" y2="227.836" gradientUnits="userSpaceOnUse">
<stop stop-color="#FFD572"/>
<stop offset="1" stop-color="#FEBD38"/>
</linearGradient>
<linearGradient id="paint10_linear_881_3170" x1="137.737" y1="147.234" x2="137.737" y2="227.836" gradientUnits="userSpaceOnUse">
<stop stop-color="#B09FFF"/>
<stop offset="1" stop-color="#8D79F6"/>
</linearGradient>
<linearGradient id="paint11_linear_881_3170" x1="137.737" y1="176.544" x2="137.737" y2="227.836" gradientUnits="userSpaceOnUse">
<stop stop-color="#FFD572"/>
<stop offset="1" stop-color="#FEBD38"/>
</linearGradient>
<linearGradient id="paint12_linear_881_3170" x1="83.7451" y1="135.279" x2="83.7451" y2="227.836" gradientUnits="userSpaceOnUse">
<stop stop-color="#B09FFF"/>
<stop offset="1" stop-color="#8D79F6"/>
</linearGradient>
<linearGradient id="paint13_linear_881_3170" x1="83.7451" y1="169.217" x2="83.7451" y2="227.836" gradientUnits="userSpaceOnUse">
<stop stop-color="#FFD572"/>
<stop offset="1" stop-color="#FEBD38"/>
</linearGradient>
<linearGradient id="paint14_linear_881_3170" x1="164.733" y1="126.023" x2="164.733" y2="227.836" gradientUnits="userSpaceOnUse">
<stop stop-color="#B09FFF"/>
<stop offset="1" stop-color="#8D79F6"/>
</linearGradient>
<linearGradient id="paint15_linear_881_3170" x1="164.733" y1="163.432" x2="164.733" y2="227.836" gradientUnits="userSpaceOnUse">
<stop stop-color="#FFD572"/>
<stop offset="1" stop-color="#FEBD38"/>
</linearGradient>
<linearGradient id="paint16_linear_881_3170" x1="110.741" y1="169.217" x2="110.741" y2="227.836" gradientUnits="userSpaceOnUse">
<stop stop-color="#B09FFF"/>
<stop offset="1" stop-color="#8D79F6"/>
</linearGradient>
<linearGradient id="paint17_linear_881_3170" x1="110.741" y1="190.813" x2="110.741" y2="227.836" gradientUnits="userSpaceOnUse">
<stop stop-color="#FFD572"/>
<stop offset="1" stop-color="#FEBD38"/>
</linearGradient>
<linearGradient id="paint18_linear_881_3170" x1="191.729" y1="187.342" x2="191.729" y2="227.836" gradientUnits="userSpaceOnUse">
<stop stop-color="#B09FFF"/>
<stop offset="1" stop-color="#8D79F6"/>
</linearGradient>
<linearGradient id="paint19_linear_881_3170" x1="191.729" y1="201.997" x2="191.729" y2="227.836" gradientUnits="userSpaceOnUse">
<stop stop-color="#FFD572"/>
<stop offset="1" stop-color="#FEBD38"/>
</linearGradient>
<linearGradient id="paint20_linear_881_3170" x1="218.726" y1="153.019" x2="218.726" y2="227.836" gradientUnits="userSpaceOnUse">
<stop stop-color="#B09FFF"/>
<stop offset="1" stop-color="#8D79F6"/>
</linearGradient>
<linearGradient id="paint21_linear_881_3170" x1="218.726" y1="180.401" x2="218.726" y2="227.836" gradientUnits="userSpaceOnUse">
<stop stop-color="#FFD572"/>
<stop offset="1" stop-color="#FEBD38"/>
</linearGradient>
<linearGradient id="paint22_linear_881_3170" x1="453.001" y1="338.769" x2="453.001" y2="459.231" gradientUnits="userSpaceOnUse">
<stop stop-color="#7AD3FF"/>
<stop offset="1" stop-color="#4FBAF0"/>
</linearGradient>
<linearGradient id="paint23_linear_881_3170" x1="453.001" y1="343.636" x2="453.001" y2="454.364" gradientUnits="userSpaceOnUse">
<stop stop-color="#FE6C6C"/>
<stop offset="1" stop-color="#FE464B"/>
</linearGradient>
<linearGradient id="paint24_linear_881_3170" x1="453" y1="333.293" x2="453" y2="464.707" gradientUnits="userSpaceOnUse">
<stop stop-color="#FD95D3"/>
<stop offset="1" stop-color="#FF5CBE"/>
</linearGradient>
<linearGradient id="paint25_linear_881_3170" x1="453.001" y1="338.769" x2="453.001" y2="459.231" gradientUnits="userSpaceOnUse">
<stop stop-color="#99FFA3"/>
<stop offset="1" stop-color="#68EE76"/>
</linearGradient>
<linearGradient id="paint26_linear_881_3170" x1="452.999" y1="330.556" x2="452.999" y2="467.444" gradientUnits="userSpaceOnUse">
<stop stop-color="#FFD572"/>
<stop offset="1" stop-color="#FEBD38"/>
</linearGradient>
</defs>
</svg>
