<svg width="40" height="41" viewBox="0 0 40 41" fill="none" xmlns="http://www.w3.org/2000/svg">
<g clip-path="url(#clip0_881_3281)">
<path d="M38.4335 21.0294H30.636C30.524 20.0782 30.3045 19.1595 29.9896 18.2859H38.5543C39.199 18.2859 39.7237 17.7671 39.7307 17.1224C39.8327 7.8418 32.3413 0.5 23.3056 0.5C22.6559 0.5 22.1291 1.02675 22.1291 1.67647V10.6586C21.2732 10.3791 20.3771 10.1901 19.4515 10.103V5.66706C19.4515 5.01733 18.9247 4.49059 18.275 4.49059C8.32388 4.49059 0.269531 12.5431 0.269531 22.4954C0.269531 32.446 8.32294 40.5 18.275 40.5C22.2586 40.5 26.0336 39.2251 29.1921 36.8131C29.7117 36.4163 29.807 35.6728 29.4084 35.1579L26.696 31.6536C27.5018 30.9121 28.2098 30.066 28.7982 29.1368L32.1847 33.5118C32.5805 34.0232 33.3149 34.1193 33.8291 33.7267C37.4499 30.9613 39.5569 26.7671 39.6099 22.2195C39.6174 21.5646 39.0881 21.0294 38.4335 21.0294ZM24.4821 2.90102C31.26 3.45765 36.8541 8.89443 37.344 15.9329H28.8478C27.7632 14.1915 26.2612 12.736 24.4821 11.7082V2.90102ZM26.796 35.627C24.2619 37.2794 21.3396 38.1471 18.275 38.1471C9.6442 38.1471 2.62247 31.1257 2.62247 22.4953C2.62247 14.2605 9.01494 7.49051 17.0986 6.88722V10.1028C10.784 10.6973 5.82624 16.0278 5.82624 22.4952C5.82624 29.3592 11.4105 34.9435 18.2745 34.9435C20.6753 34.9435 22.9191 34.2595 24.8226 33.0774L26.796 35.627ZM18.2745 32.5905C12.7079 32.5905 8.17918 28.0618 8.17918 22.4952C8.17918 16.9285 12.7079 12.3998 18.2745 12.3998C23.8411 12.3998 28.3698 16.9285 28.3698 22.4952C28.3698 28.0618 23.8411 32.5905 18.2745 32.5905ZM33.2968 31.1046L29.9584 26.7915C30.3549 25.7165 30.6066 24.5722 30.6908 23.3824H37.1868C36.8688 26.3518 35.4968 29.0758 33.2968 31.1046Z" fill="#008AFF"/>
<path d="M19.5386 21.3188H17.0119C16.4095 21.3188 15.9193 20.8286 15.9193 20.2261C15.9193 19.6218 16.4085 19.1336 17.0116 19.1336C17.0174 19.1337 17.023 19.1337 17.0287 19.1337H19.4484C19.8801 19.138 20.307 19.3319 20.6202 19.6661C21.0646 20.1402 21.809 20.1644 22.2831 19.72C22.7572 19.2757 22.7814 18.5312 22.3371 18.0571C21.5502 17.2175 20.4726 16.7808 19.4517 16.7808V15.7559C19.4517 15.1062 18.9249 14.5795 18.2752 14.5795C17.6255 14.5795 17.0987 15.1062 17.0987 15.7559V16.7808C14.9778 16.7808 13.5664 18.4199 13.5664 20.2262C13.5664 22.1261 15.1121 23.6718 17.0119 23.6718H19.5386C20.141 23.6718 20.6311 24.1619 20.6311 24.7643C20.6311 25.3451 20.1722 25.8569 19.5218 25.8569H16.8818C16.5769 25.8537 16.253 25.7438 15.9694 25.547C15.4355 25.1765 14.7025 25.3092 14.3321 25.8429C13.9618 26.3768 14.0943 27.1097 14.6281 27.4802C15.4536 28.053 16.2085 28.2098 17.0986 28.2098V29.2347C17.0986 29.8844 17.6254 30.4112 18.2751 30.4112C18.9248 30.4112 19.4516 29.8844 19.4516 29.2347V28.2098C21.59 28.2098 22.984 26.5547 22.984 24.7643C22.9841 22.8644 21.4385 21.3188 19.5386 21.3188Z" fill="#008AFF"/>
</g>
<defs>
<clipPath id="clip0_881_3281">
<rect width="40" height="40" fill="white" transform="translate(0 0.5)"/>
</clipPath>
</defs>
</svg>
