<svg width="40" height="41" viewBox="0 0 40 41" fill="none" xmlns="http://www.w3.org/2000/svg">
<g clip-path="url(#clip0_881_3275)">
<path d="M36.9955 25.3438H36.2109V24.5705C36.2109 22.4123 34.455 20.6562 32.2966 20.6562H21.1719V18.3125H26.7585C27.4057 18.3125 27.9304 17.7878 27.9304 17.1406V14.5363C27.9304 11.8502 26.5291 9.37047 24.2891 7.96656C24.7191 7.23172 24.9668 6.37789 24.9668 5.4668C24.9668 2.72813 22.7387 0.5 20 0.5C17.2613 0.5 15.0332 2.72813 15.0332 5.4668C15.0332 6.37789 15.2809 7.23172 15.7109 7.96656C13.4709 9.37047 12.0696 11.8502 12.0696 14.5363V17.1406C12.0696 17.7878 12.5943 18.3125 13.2415 18.3125H18.8281V20.6562H7.74242C5.58406 20.6562 3.82812 22.4122 3.82812 24.5705V25.3438H3.00453C1.34781 25.3438 0 26.6916 0 28.3483V37.4954C0 39.1522 1.34781 40.5 3.00453 40.5H6.91727C8.57406 40.5 9.92188 39.1522 9.92188 37.4955V28.3483C9.92188 26.6916 8.57406 25.3438 6.91734 25.3438H6.17188V24.5705C6.17188 23.7045 6.87641 23 7.74242 23H18.8281V25.3438H15.2702C13.6134 25.3438 12.2656 26.6916 12.2656 28.3483V37.4954C12.2656 39.1522 13.6134 40.5 15.2702 40.5H24.7298C26.3866 40.5 27.7344 39.1522 27.7344 37.4955V28.3483C27.7344 26.6916 26.3866 25.3438 24.7298 25.3438H21.1719V23H32.2966C33.1626 23 33.8672 23.7045 33.8672 24.5705V25.3438H33.0827C31.4259 25.3438 30.0781 26.6916 30.0781 28.3483V37.4954C30.0781 39.1522 31.4259 40.5 33.0827 40.5H36.9954C38.6522 40.5 40 39.1522 40 37.4955V28.3483C40 26.6916 38.6522 25.3438 36.9955 25.3438ZM20 2.84375C21.4463 2.84375 22.623 4.02047 22.623 5.4668C22.623 6.91313 21.4463 8.08977 20 8.08977C18.5537 8.08977 17.377 6.91305 17.377 5.46672C17.377 4.02039 18.5537 2.84375 20 2.84375ZM14.4134 14.5363C14.4134 12.4883 15.5808 10.6115 17.4042 9.69914C17.8495 9.9732 18.3412 10.178 18.8642 10.3009V12.7312C18.8642 13.3784 19.3889 13.9031 20.0361 13.9031C20.6833 13.9031 21.208 13.3784 21.208 12.7312V10.2842C21.7042 10.1597 22.171 9.96055 22.5958 9.69914C24.4193 10.6114 25.5866 12.4883 25.5866 14.5363V15.9688H14.4134V14.5363ZM7.57812 28.3483V37.4954C7.57812 37.8598 7.28172 38.1562 6.91734 38.1562H3.00453C2.64016 38.1562 2.34375 37.8598 2.34375 37.4954V28.3483C2.34375 27.9839 2.64016 27.6875 3.00453 27.6875H6.91727C7.28172 27.6875 7.57812 27.9839 7.57812 28.3483ZM25.3906 28.3483V37.4954C25.3906 37.8598 25.0942 38.1562 24.7298 38.1562H15.2702C14.9058 38.1562 14.6094 37.8598 14.6094 37.4954V28.3483C14.6094 27.9839 14.9058 27.6875 15.2702 27.6875H24.7298C25.0942 27.6875 25.3906 27.9839 25.3906 28.3483ZM37.6562 37.4955C37.6562 37.8598 37.3598 38.1562 36.9955 38.1562H33.0827C32.7184 38.1562 32.422 37.8598 32.422 37.4955V28.3483C32.422 27.9839 32.7184 27.6875 33.0827 27.6875H36.9955C37.3598 27.6875 37.6562 27.9839 37.6562 28.3483V37.4955Z" fill="#008AFF"/>
</g>
<defs>
<clipPath id="clip0_881_3275">
<rect width="40" height="40" fill="white" transform="translate(0 0.5)"/>
</clipPath>
</defs>
</svg>
