<svg width="40" height="41" viewBox="0 0 40 41" fill="none" xmlns="http://www.w3.org/2000/svg">
<g clip-path="url(#clip0_881_3266)">
<path d="M39.9531 3.48608C39.8665 1.89718 38.6028 0.633662 37.0139 0.546944C33.8078 0.371787 27.5341 0.542178 21.535 3.64507C18.4768 5.22694 15.2424 7.9089 12.6613 11.0033C12.6295 11.0414 12.5985 11.0798 12.567 11.118L6.70916 11.5705C5.74494 11.645 4.88611 12.1504 4.35283 12.9569L0.356426 19.0016C-0.0480274 19.6133 -0.112324 20.3789 0.184316 21.0494C0.481035 21.7201 1.09072 22.1874 1.81533 22.2997L6.75057 23.0641C6.73314 23.16 6.71564 23.2558 6.69963 23.3518C6.53533 24.3346 6.86096 25.3451 7.5708 26.0548L14.4452 32.9293C15.0337 33.5178 15.8289 33.8423 16.6438 33.8423C16.8116 33.8423 16.9803 33.8284 17.1483 33.8004C17.2442 33.7844 17.3401 33.7669 17.436 33.7494L18.2004 38.6848C18.3127 39.4094 18.78 40.0191 19.4505 40.3158C19.7295 40.4392 20.0247 40.5001 20.3186 40.5001C20.7313 40.5001 21.1412 40.3799 21.4984 40.1437L27.5431 36.1473C28.3497 35.6139 28.855 34.7551 28.9294 33.7909L29.3819 27.9332C29.4201 27.9016 29.4585 27.8707 29.4967 27.8389C32.5911 25.2577 35.2731 22.0233 36.8549 18.9651C39.958 12.9658 40.1281 6.69194 39.9531 3.48608ZM26.2505 34.1921L20.4684 38.015L19.7234 33.2052C22.1671 32.4867 24.5845 31.3359 26.8876 29.7943L26.5928 33.6103C26.5745 33.8483 26.4496 34.0605 26.2505 34.1921ZM16.1024 31.272L9.22799 24.3976C9.0526 24.2221 8.9715 23.9756 9.01127 23.7382C9.21564 22.5161 9.53322 21.3527 9.92635 20.2568L20.241 30.5715C18.9248 31.043 17.7458 31.3242 16.7618 31.4887C16.524 31.5283 16.2778 31.4474 16.1024 31.272ZM6.88971 13.9073L10.7056 13.6125C9.16392 15.9155 8.01314 18.333 7.29463 20.7767L2.48494 20.0318L6.30791 14.2496C6.43963 14.0504 6.65174 13.9256 6.88971 13.9073ZM27.9956 26.039C26.1024 27.6181 24.2646 28.7603 22.5707 29.5868L10.9128 17.9289C11.9955 15.7176 13.3168 13.8763 14.461 12.5046C16.8497 9.64093 19.8206 7.17054 22.6119 5.72679C28.1177 2.8789 33.9185 2.72554 36.8863 2.8871C37.2792 2.90851 37.5916 3.22093 37.613 3.61382C37.7748 6.58163 37.6211 12.3824 34.7732 17.8883C33.3295 20.6795 30.8592 23.6503 27.9956 26.039Z" fill="#008AFF"/>
<path d="M27.3983 18.9565C28.8984 18.9563 30.3992 18.3853 31.5413 17.2431C32.648 16.1365 33.2574 14.6651 33.2574 13.1001C33.2574 11.5351 32.648 10.0637 31.5413 8.95705C29.2568 6.67244 25.5396 6.6726 23.2552 8.95705C22.1485 10.0637 21.5391 11.5351 21.5391 13.1001C21.5391 14.6651 22.1486 16.1365 23.2552 17.2431C24.3976 18.3855 25.8976 18.9567 27.3983 18.9565ZM24.9123 10.6142C25.5977 9.92885 26.4979 9.58619 27.3981 9.58619C28.2984 9.58619 29.1987 9.92885 29.884 10.6142C30.548 11.2782 30.9136 12.161 30.9136 13.1C30.9136 14.039 30.548 14.9219 29.884 15.5859C28.5134 16.9566 26.283 16.9565 24.9123 15.5859C24.2483 14.9219 23.8826 14.0391 23.8826 13.1001C23.8826 12.1611 24.2484 11.2782 24.9123 10.6142Z" fill="#008AFF"/>
<path d="M1.19527 33.4639C1.4952 33.4639 1.79512 33.3496 2.02387 33.1207L5.84988 29.2946C6.30754 28.837 6.30754 28.095 5.84988 27.6374C5.3923 27.1797 4.65027 27.1797 4.19262 27.6374L0.36668 31.4634C-0.0909766 31.921 -0.0909766 32.663 0.36668 33.1207C0.59543 33.3495 0.895352 33.4639 1.19527 33.4639Z" fill="#008AFF"/>
<path d="M9.35629 31.1437C8.89871 30.686 8.15668 30.686 7.69902 31.1437L0.343242 38.4995C-0.114414 38.9572 -0.114414 39.6991 0.343242 40.1568C0.57207 40.3856 0.871914 40.5 1.17184 40.5C1.47176 40.5 1.77168 40.3856 2.00043 40.1567L9.35621 32.8009C9.81394 32.3433 9.81394 31.6013 9.35629 31.1437Z" fill="#008AFF"/>
<path d="M11.2044 34.65L7.3784 38.476C6.92074 38.9337 6.92074 39.6756 7.3784 40.1333C7.60723 40.3621 7.90715 40.4766 8.20699 40.4766C8.50684 40.4766 8.80684 40.3622 9.03559 40.1333L12.8616 36.3073C13.3193 35.8496 13.3193 35.1077 12.8616 34.65C12.404 34.1923 11.662 34.1923 11.2044 34.65Z" fill="#008AFF"/>
</g>
<defs>
<clipPath id="clip0_881_3266">
<rect width="40" height="40" fill="white" transform="translate(0 0.5)"/>
</clipPath>
</defs>
</svg>
