<svg width="32" height="32" viewBox="0 0 32 32" fill="none" xmlns="http://www.w3.org/2000/svg">
<g clip-path="url(#clip0_882_2332)">
<path d="M25.3333 1.33313H6.66667C4.89921 1.33525 3.20474 2.03831 1.95496 3.28809C0.705176 4.53787 0.00211714 6.23234 0 7.9998L0 18.6665C0.00211714 20.4339 0.705176 22.1284 1.95496 23.3782C3.20474 24.628 4.89921 25.331 6.66667 25.3331H14.6667V27.9998H9.33333C8.97971 27.9998 8.64057 28.1403 8.39052 28.3903C8.14048 28.6404 8 28.9795 8 29.3331C8 29.6868 8.14048 30.0259 8.39052 30.2759C8.64057 30.526 8.97971 30.6665 9.33333 30.6665H22.6667C23.0203 30.6665 23.3594 30.526 23.6095 30.2759C23.8595 30.0259 24 29.6868 24 29.3331C24 28.9795 23.8595 28.6404 23.6095 28.3903C23.3594 28.1403 23.0203 27.9998 22.6667 27.9998H17.3333V25.3331H25.3333C27.1008 25.331 28.7953 24.628 30.045 23.3782C31.2948 22.1284 31.9979 20.4339 32 18.6665V7.9998C31.9979 6.23234 31.2948 4.53787 30.045 3.28809C28.7953 2.03831 27.1008 1.33525 25.3333 1.33313ZM6.66667 3.9998H25.3333C26.3942 3.9998 27.4116 4.42122 28.1618 5.17137C28.9119 5.92151 29.3333 6.93893 29.3333 7.9998V17.3331H2.66667V7.9998C2.66667 6.93893 3.08809 5.92151 3.83824 5.17137C4.58839 4.42122 5.6058 3.9998 6.66667 3.9998ZM25.3333 22.6665H6.66667C5.84232 22.663 5.03916 22.405 4.36707 21.9277C3.69498 21.4503 3.18678 20.777 2.912 19.9998H29.088C28.8132 20.777 28.305 21.4503 27.6329 21.9277C26.9608 22.405 26.1577 22.663 25.3333 22.6665Z" fill="#008AFF"/>
</g>
<defs>
<clipPath id="clip0_882_2332">
<rect width="32" height="32" fill="white"/>
</clipPath>
</defs>
</svg>
