<svg width="32" height="32" viewBox="0 0 32 32" fill="none" xmlns="http://www.w3.org/2000/svg">
<g clip-path="url(#clip0_882_2354)">
<path d="M24.6667 0H7.33333C5.38906 0.00211756 3.52503 0.775414 2.15022 2.15022C0.775414 3.52503 0.00211756 5.38906 0 7.33333L0 18C0.00211756 19.9443 0.775414 21.8083 2.15022 23.1831C3.52503 24.5579 5.38906 25.3312 7.33333 25.3333H14V28H10.6667C10.1362 28 9.62753 28.2107 9.25245 28.5858C8.87738 28.9609 8.66667 29.4696 8.66667 30C8.66667 30.5304 8.87738 31.0391 9.25245 31.4142C9.62753 31.7893 10.1362 32 10.6667 32H21.3333C21.8638 32 22.3725 31.7893 22.7475 31.4142C23.1226 31.0391 23.3333 30.5304 23.3333 30C23.3333 29.4696 23.1226 28.9609 22.7475 28.5858C22.3725 28.2107 21.8638 28 21.3333 28H18V25.3333H24.6667C26.6109 25.3312 28.475 24.5579 29.8498 23.1831C31.2246 21.8083 31.9979 19.9443 32 18V7.33333C31.9979 5.38906 31.2246 3.52503 29.8498 2.15022C28.475 0.775414 26.6109 0.00211756 24.6667 0V0ZM7.33333 4H24.6667C25.5507 4 26.3986 4.35119 27.0237 4.97631C27.6488 5.60143 28 6.44928 28 7.33333V17.3333H4V7.33333C4 6.44928 4.35119 5.60143 4.97631 4.97631C5.60143 4.35119 6.44928 4 7.33333 4Z" fill="#FAFAFA"/>
</g>
<defs>
<clipPath id="clip0_882_2354">
<rect width="32" height="32" fill="white"/>
</clipPath>
</defs>
</svg>
