<svg width="32" height="32" viewBox="0 0 32 32" fill="none" xmlns="http://www.w3.org/2000/svg">
<g clip-path="url(#clip0_882_2328)">
<path d="M32.0012 15.3334C31.998 14.4344 31.7917 13.5478 31.3979 12.7398C31.004 11.9317 30.4327 11.223 29.7265 10.6667C30.7034 9.89661 31.4156 8.84077 31.7637 7.6465C32.1118 6.45224 32.0784 5.1791 31.6683 4.0047C31.2581 2.8303 30.4916 1.81322 29.4757 1.09532C28.4598 0.37743 27.2451 -0.00546259 26.0012 5.88867e-05H6.00119C4.75724 -0.00546259 3.54258 0.37743 2.52668 1.09532C1.51077 1.81322 0.744269 2.8303 0.33411 4.0047C-0.0760484 5.1791 -0.109411 6.45224 0.238675 7.6465C0.586762 8.84077 1.29894 9.89661 2.27585 10.6667C1.56725 11.2208 0.994128 11.929 0.599969 12.7376C0.20581 13.5462 0.00096212 14.4339 0.00096212 15.3334C0.00096212 16.2329 0.20581 17.1206 0.599969 17.9292C0.994128 18.7378 1.56725 19.446 2.27585 20.0001C1.29894 20.7702 0.586762 21.826 0.238675 23.0203C-0.109411 24.2145 -0.0760484 25.4877 0.33411 26.6621C0.744269 27.8365 1.51077 28.8536 2.52668 29.5715C3.54258 30.2894 4.75724 30.6722 6.00119 30.6667H26.0012C27.2451 30.6722 28.4598 30.2894 29.4757 29.5715C30.4916 28.8536 31.2581 27.8365 31.6683 26.6621C32.0784 25.4877 32.1118 24.2145 31.7637 23.0203C31.4156 21.826 30.7034 20.7702 29.7265 20.0001C30.4327 19.4437 31.004 18.7351 31.3979 17.927C31.7917 17.1189 31.998 16.2323 32.0012 15.3334ZM2.66785 6.00006C2.66785 5.116 3.01904 4.26816 3.64416 3.64304C4.26929 3.01791 5.11713 2.66673 6.00119 2.66673H6.66785V4.00006C6.66785 4.35368 6.80833 4.69282 7.05838 4.94287C7.30843 5.19292 7.64756 5.33339 8.00119 5.33339C8.35481 5.33339 8.69395 5.19292 8.944 4.94287C9.19404 4.69282 9.33452 4.35368 9.33452 4.00006V2.66673H12.0012V4.00006C12.0012 4.35368 12.1417 4.69282 12.3917 4.94287C12.6418 5.19292 12.9809 5.33339 13.3345 5.33339C13.6881 5.33339 14.0273 5.19292 14.2773 4.94287C14.5274 4.69282 14.6679 4.35368 14.6679 4.00006V2.66673H26.0012C26.8852 2.66673 27.7331 3.01791 28.3582 3.64304C28.9833 4.26816 29.3345 5.116 29.3345 6.00006C29.3345 6.88411 28.9833 7.73196 28.3582 8.35708C27.7331 8.9822 26.8852 9.33339 26.0012 9.33339H6.00119C5.11713 9.33339 4.26929 8.9822 3.64416 8.35708C3.01904 7.73196 2.66785 6.88411 2.66785 6.00006ZM29.3345 24.6667C29.3345 25.5508 28.9833 26.3986 28.3582 27.0237C27.7331 27.6489 26.8852 28.0001 26.0012 28.0001H6.00119C5.11713 28.0001 4.26929 27.6489 3.64416 27.0237C3.01904 26.3986 2.66785 25.5508 2.66785 24.6667C2.66785 23.7827 3.01904 22.9348 3.64416 22.3097C4.26929 21.6846 5.11713 21.3334 6.00119 21.3334H6.66785V22.6667C6.66785 23.0203 6.80833 23.3595 7.05838 23.6095C7.30843 23.8596 7.64756 24.0001 8.00119 24.0001C8.35481 24.0001 8.69395 23.8596 8.944 23.6095C9.19404 23.3595 9.33452 23.0203 9.33452 22.6667V21.3334H12.0012V22.6667C12.0012 23.0203 12.1417 23.3595 12.3917 23.6095C12.6418 23.8596 12.9809 24.0001 13.3345 24.0001C13.6881 24.0001 14.0273 23.8596 14.2773 23.6095C14.5274 23.3595 14.6679 23.0203 14.6679 22.6667V21.3334H26.0012C26.8852 21.3334 27.7331 21.6846 28.3582 22.3097C28.9833 22.9348 29.3345 23.7827 29.3345 24.6667ZM6.00119 18.6667C5.11713 18.6667 4.26929 18.3155 3.64416 17.6904C3.01904 17.0653 2.66785 16.2174 2.66785 15.3334C2.66785 14.4493 3.01904 13.6015 3.64416 12.9764C4.26929 12.3512 5.11713 12.0001 6.00119 12.0001H6.66785V13.3334C6.66785 13.687 6.80833 14.0262 7.05838 14.2762C7.30843 14.5262 7.64756 14.6667 8.00119 14.6667C8.35481 14.6667 8.69395 14.5262 8.944 14.2762C9.19404 14.0262 9.33452 13.687 9.33452 13.3334V12.0001H12.0012V13.3334C12.0012 13.687 12.1417 14.0262 12.3917 14.2762C12.6418 14.5262 12.9809 14.6667 13.3345 14.6667C13.6881 14.6667 14.0273 14.5262 14.2773 14.2762C14.5274 14.0262 14.6679 13.687 14.6679 13.3334V12.0001H26.0012C26.8852 12.0001 27.7331 12.3512 28.3582 12.9764C28.9833 13.6015 29.3345 14.4493 29.3345 15.3334C29.3345 16.2174 28.9833 17.0653 28.3582 17.6904C27.7331 18.3155 26.8852 18.6667 26.0012 18.6667H6.00119Z" fill="#008AFF"/>
</g>
<defs>
<clipPath id="clip0_882_2328">
<rect width="32" height="32" fill="white"/>
</clipPath>
</defs>
</svg>
