<svg width="32" height="32" viewBox="0 0 32 32" fill="none" xmlns="http://www.w3.org/2000/svg">
<g clip-path="url(#clip0_882_2350)">
<path d="M28 22.6669H13.3333V25.3335C13.3333 25.6872 13.1929 26.0263 12.9428 26.2763C12.6928 26.5264 12.3536 26.6669 12 26.6669C11.6464 26.6669 11.3072 26.5264 11.0572 26.2763C10.8071 26.0263 10.6667 25.6872 10.6667 25.3335V22.6669H8V25.3335C8 25.6872 7.85952 26.0263 7.60948 26.2763C7.35943 26.5264 7.02029 26.6669 6.66667 26.6669C6.31305 26.6669 5.97391 26.5264 5.72386 26.2763C5.47381 26.0263 5.33333 25.6872 5.33333 25.3335V22.6669H4C2.93913 22.6669 1.92172 23.0883 1.17157 23.8384C0.421427 24.5886 0 25.606 0 26.6669C0 27.7277 0.421427 28.7452 1.17157 29.4953C1.92172 30.2454 2.93913 30.6669 4 30.6669H28C29.0609 30.6669 30.0783 30.2454 30.8284 29.4953C31.5786 28.7452 32 27.7277 32 26.6669C32 25.606 31.5786 24.5886 30.8284 23.8384C30.0783 23.0883 29.0609 22.6669 28 22.6669Z" fill="#FAFAFA"/>
<path d="M28 12H13.3333V14.6667C13.3333 15.0203 13.1929 15.3594 12.9428 15.6095C12.6928 15.8595 12.3536 16 12 16C11.6464 16 11.3072 15.8595 11.0572 15.6095C10.8071 15.3594 10.6667 15.0203 10.6667 14.6667V12H8V14.6667C8 15.0203 7.85952 15.3594 7.60948 15.6095C7.35943 15.8595 7.02029 16 6.66667 16C6.31305 16 5.97391 15.8595 5.72386 15.6095C5.47381 15.3594 5.33333 15.0203 5.33333 14.6667V12H4C2.93913 12 1.92172 12.4214 1.17157 13.1716C0.421427 13.9217 0 14.9391 0 16C0 17.0609 0.421427 18.0783 1.17157 18.8284C1.92172 19.5786 2.93913 20 4 20H28C29.0609 20 30.0783 19.5786 30.8284 18.8284C31.5786 18.0783 32 17.0609 32 16C32 14.9391 31.5786 13.9217 30.8284 13.1716C30.0783 12.4214 29.0609 12 28 12Z" fill="#FAFAFA"/>
<path d="M28 1.33313H13.3333V3.9998C13.3333 4.35342 13.1929 4.69256 12.9428 4.94261C12.6928 5.19265 12.3536 5.33313 12 5.33313C11.6464 5.33313 11.3072 5.19265 11.0572 4.94261C10.8071 4.69256 10.6667 4.35342 10.6667 3.9998V1.33313H8V3.9998C8 4.35342 7.85952 4.69256 7.60948 4.94261C7.35943 5.19265 7.02029 5.33313 6.66667 5.33313C6.31305 5.33313 5.97391 5.19265 5.72386 4.94261C5.47381 4.69256 5.33333 4.35342 5.33333 3.9998V1.33313H4C2.93913 1.33313 1.92172 1.75456 1.17157 2.5047C0.421427 3.25485 0 4.27226 0 5.33313C0 6.394 0.421427 7.41141 1.17157 8.16156C1.92172 8.9117 2.93913 9.33313 4 9.33313H28C29.0609 9.33313 30.0783 8.9117 30.8284 8.16156C31.5786 7.41141 32 6.394 32 5.33313C32 4.27226 31.5786 3.25485 30.8284 2.5047C30.0783 1.75456 29.0609 1.33313 28 1.33313Z" fill="#FAFAFA"/>
</g>
<defs>
<clipPath id="clip0_882_2350">
<rect width="32" height="32" fill="white"/>
</clipPath>
</defs>
</svg>
