<svg width="32" height="32" viewBox="0 0 32 32" fill="none" xmlns="http://www.w3.org/2000/svg">
<g clip-path="url(#clip0_882_2329)">
<path d="M22.668 18.6666C22.668 19.0203 22.5275 19.3594 22.2774 19.6094C22.0274 19.8595 21.6883 20 21.3346 20H10.668C10.3143 20 9.97521 19.8595 9.72516 19.6094C9.47511 19.3594 9.33464 19.0203 9.33464 18.6666C9.33464 18.313 9.47511 17.9739 9.72516 17.7238C9.97521 17.4738 10.3143 17.3333 10.668 17.3333H21.3346C21.6883 17.3333 22.0274 17.4738 22.2774 17.7238C22.5275 17.9739 22.668 18.313 22.668 18.6666ZM17.3346 22.6666H10.668C10.3143 22.6666 9.97521 22.8071 9.72516 23.0572C9.47511 23.3072 9.33464 23.6463 9.33464 24C9.33464 24.3536 9.47511 24.6927 9.72516 24.9428C9.97521 25.1928 10.3143 25.3333 10.668 25.3333H17.3346C17.6883 25.3333 18.0274 25.1928 18.2774 24.9428C18.5275 24.6927 18.668 24.3536 18.668 24C18.668 23.6463 18.5275 23.3072 18.2774 23.0572C18.0274 22.8071 17.6883 22.6666 17.3346 22.6666ZM29.3346 13.98V25.3333C29.3325 27.1008 28.6295 28.7952 27.3797 30.045C26.1299 31.2948 24.4354 31.9979 22.668 32H9.33464C7.56718 31.9979 5.87271 31.2948 4.62293 30.045C3.37314 28.7952 2.67009 27.1008 2.66797 25.3333V6.66664C2.67009 4.89918 3.37314 3.20471 4.62293 1.95493C5.87271 0.705146 7.56718 0.00208684 9.33464 -3.03036e-05H15.3546C16.5808 -0.0031862 17.7954 0.236753 18.9283 0.705915C20.0611 1.17508 21.0897 1.86415 21.9546 2.7333L26.6 7.3813C27.4696 8.24562 28.1591 9.27391 28.6285 10.4066C29.098 11.5393 29.338 12.7539 29.3346 13.98ZM20.0693 4.61864C19.6497 4.21218 19.1785 3.86253 18.668 3.57864V9.3333C18.668 9.68692 18.8084 10.0261 19.0585 10.2761C19.3085 10.5262 19.6477 10.6666 20.0013 10.6666H25.756C25.4719 10.1562 25.1218 9.6855 24.7146 9.26664L20.0693 4.61864ZM26.668 13.98C26.668 13.76 26.6253 13.5493 26.6053 13.3333H20.0013C18.9404 13.3333 17.923 12.9119 17.1729 12.1617C16.4227 11.4116 16.0013 10.3942 16.0013 9.3333V2.7293C15.7853 2.7093 15.5733 2.66664 15.3546 2.66664H9.33464C8.27377 2.66664 7.25635 3.08806 6.50621 3.83821C5.75606 4.58836 5.33464 5.60577 5.33464 6.66664V25.3333C5.33464 26.3942 5.75606 27.4116 6.50621 28.1617C7.25635 28.9119 8.27377 29.3333 9.33464 29.3333H22.668C23.7288 29.3333 24.7463 28.9119 25.4964 28.1617C26.2465 27.4116 26.668 26.3942 26.668 25.3333V13.98Z" fill="#008AFF"/>
</g>
<defs>
<clipPath id="clip0_882_2329">
<rect width="32" height="32" fill="white"/>
</clipPath>
</defs>
</svg>
