<svg width="32" height="32" viewBox="0 0 32 32" fill="none" xmlns="http://www.w3.org/2000/svg">
<path d="M27.9996 16.5649V14.6663C27.9996 11.4837 26.7353 8.43141 24.4849 6.18098C22.2345 3.93054 19.1822 2.66626 15.9996 2.66626C12.817 2.66626 9.76476 3.93054 7.51433 6.18098C5.26389 8.43141 3.99961 11.4837 3.99961 14.6663V16.5649C2.60115 17.1807 1.45668 18.2582 0.757771 19.617C0.0588655 20.9758 -0.152043 22.5335 0.160352 24.0292C0.472748 25.525 1.28949 26.868 2.47384 27.8335C3.65819 28.799 5.13826 29.3284 6.66628 29.3329C7.37352 29.3329 8.0518 29.052 8.55189 28.5519C9.05199 28.0518 9.33294 27.3735 9.33294 26.6663V18.6663C9.33294 17.959 9.05199 17.2807 8.55189 16.7806C8.0518 16.2805 7.37352 15.9996 6.66628 15.9996V14.6663C6.66628 12.1909 7.64961 9.81693 9.39995 8.0666C11.1503 6.31626 13.5243 5.33293 15.9996 5.33293C18.475 5.33293 20.8489 6.31626 22.5993 8.0666C24.3496 9.81693 25.3329 12.1909 25.3329 14.6663V15.9996C24.6257 15.9996 23.9474 16.2805 23.4473 16.7806C22.9472 17.2807 22.6663 17.959 22.6663 18.6663V26.6663H18.6663C18.3127 26.6663 17.9735 26.8067 17.7235 27.0568C17.4734 27.3068 17.3329 27.646 17.3329 27.9996C17.3329 28.3532 17.4734 28.6924 17.7235 28.9424C17.9735 29.1924 18.3127 29.3329 18.6663 29.3329H25.3329C26.861 29.3284 28.341 28.799 29.5254 27.8335C30.7097 26.868 31.5265 25.525 31.8389 24.0292C32.1513 22.5335 31.9404 20.9758 31.2414 19.617C30.5425 18.2582 29.3981 17.1807 27.9996 16.5649ZM6.66628 26.6663C5.60541 26.6663 4.58799 26.2448 3.83785 25.4947C3.0877 24.7445 2.66628 23.7271 2.66628 22.6663C2.66628 21.6054 3.0877 20.588 3.83785 19.8378C4.58799 19.0877 5.60541 18.6663 6.66628 18.6663V26.6663ZM25.3329 26.6663V18.6663C26.3938 18.6663 27.4112 19.0877 28.1614 19.8378C28.9115 20.588 29.3329 21.6054 29.3329 22.6663C29.3329 23.7271 28.9115 24.7445 28.1614 25.4947C27.4112 26.2448 26.3938 26.6663 25.3329 26.6663Z" fill="#008AFF"/>
</svg>
