<svg width="32" height="32" viewBox="0 0 32 32" fill="none" xmlns="http://www.w3.org/2000/svg">
<g clip-path="url(#clip0_882_2333)">
<path d="M31.7816 11.7257C31.5089 10.8576 30.964 10.1003 30.2275 9.56578C29.4911 9.03128 28.6022 8.74797 27.6923 8.75774H21.8669L20.0976 3.24307C19.8194 2.37502 19.2726 1.61776 18.5362 1.08049C17.7998 0.543229 16.9118 0.253723 16.0003 0.253723C15.0887 0.253723 14.2007 0.543229 13.4643 1.08049C12.7279 1.61776 12.1812 2.37502 11.9029 3.24307L10.1336 8.75774H4.30826C3.40125 8.75903 2.51785 9.04692 1.78423 9.58028C1.05061 10.1136 0.504312 10.8652 0.223352 11.7276C-0.0576067 12.59 -0.0588503 13.5191 0.219799 14.3823C0.498449 15.2454 1.04274 15.9984 1.77492 16.5337L6.51626 20.0004L4.71359 25.5831C4.42227 26.4489 4.41858 27.3857 4.70307 28.2539C4.98756 29.122 5.54499 29.8749 6.29226 30.4004C7.02673 30.9428 7.91678 31.2333 8.8298 31.2288C9.74281 31.2242 10.6299 30.9248 11.3589 30.3751L16.0003 26.9591L20.6429 30.3711C21.3761 30.9103 22.2613 31.2033 23.1714 31.2077C24.0815 31.2121 24.9696 30.9279 25.7079 30.3958C26.4463 29.8637 26.9969 29.1111 27.2806 28.2464C27.5644 27.3816 27.5666 26.4492 27.2869 25.5831L25.4843 20.0004L30.2309 16.5337C30.9715 16.0051 31.5222 15.2521 31.8014 14.3862C32.0807 13.5203 32.0738 12.5874 31.7816 11.7257ZM28.6576 14.3804L23.1323 18.4191C22.9053 18.5846 22.7365 18.8176 22.6498 19.0849C22.5631 19.3521 22.563 19.6398 22.6496 19.9071L24.7496 26.4004C24.8559 26.7297 24.8549 27.0843 24.747 27.4131C24.6391 27.7419 24.4296 28.028 24.1488 28.2302C23.868 28.4325 23.5303 28.5405 23.1843 28.5388C22.8382 28.537 22.5016 28.4255 22.2229 28.2204L16.7896 24.2204C16.5607 24.0523 16.2842 23.9617 16.0003 23.9617C15.7163 23.9617 15.4398 24.0523 15.2109 24.2204L9.77759 28.2204C9.49903 28.4283 9.16151 28.5421 8.81394 28.5452C8.46638 28.5484 8.12685 28.4407 7.84456 28.2379C7.56228 28.0351 7.35192 27.7477 7.24399 27.4173C7.13605 27.0869 7.13614 26.7307 7.24426 26.4004L9.35092 19.9071C9.43748 19.6398 9.43742 19.3521 9.35074 19.0849C9.26406 18.8176 9.0952 18.5846 8.86826 18.4191L3.34292 14.3804C3.06466 14.1767 2.8579 13.8902 2.75218 13.5619C2.64646 13.2337 2.64718 12.8804 2.75424 12.5525C2.8613 12.2247 3.06922 11.9391 3.34831 11.7365C3.6274 11.5339 3.96338 11.4247 4.30826 11.4244H11.1083C11.3905 11.4244 11.6655 11.3348 11.8937 11.1685C12.1218 11.0022 12.2912 10.7678 12.3776 10.4991L14.4443 4.05774C14.5503 3.72812 14.7583 3.44066 15.0381 3.23674C15.318 3.03282 15.6553 2.92295 16.0016 2.92295C16.3479 2.92295 16.6852 3.03282 16.9651 3.23674C17.2449 3.44066 17.4528 3.72812 17.5589 4.05774L19.6256 10.4991C19.712 10.7678 19.8814 11.0022 20.1095 11.1685C20.3376 11.3348 20.6126 11.4244 20.8949 11.4244H27.6949C28.0398 11.4247 28.3758 11.5339 28.6549 11.7365C28.934 11.9391 29.1419 12.2247 29.2489 12.5525C29.356 12.8804 29.3567 13.2337 29.251 13.5619C29.1453 13.8902 28.9385 14.1767 28.6603 14.3804H28.6576Z" fill="#008AFF"/>
</g>
<defs>
<clipPath id="clip0_882_2333">
<rect width="32" height="32" fill="white"/>
</clipPath>
</defs>
</svg>
