<svg width="32" height="32" viewBox="0 0 32 32" fill="none" xmlns="http://www.w3.org/2000/svg">
<g clip-path="url(#clip0_882_2355)">
<path d="M1.76959 16.5337L6.51626 20.0004L4.71359 25.5831C4.42227 26.4489 4.41858 27.3857 4.70307 28.2539C4.98756 29.122 5.54499 29.8749 6.29226 30.4004C7.02673 30.9428 7.91678 31.2333 8.8298 31.2288C9.74281 31.2242 10.6299 30.9248 11.3589 30.3751L16.0003 26.9591L20.6429 30.3711C21.3761 30.9103 22.2613 31.2033 23.1714 31.2077C24.0815 31.2121 24.9696 30.9279 25.7079 30.3958C26.4463 29.8637 26.9969 29.1111 27.2806 28.2464C27.5644 27.3816 27.5666 26.4492 27.2869 25.5831L25.4843 20.0004L30.2309 16.5337C30.9631 15.9984 31.5074 15.2454 31.7861 14.3823C32.0647 13.5191 32.0635 12.59 31.7825 11.7276C31.5015 10.8652 30.9552 10.1136 30.2216 9.58028C29.488 9.04692 28.6046 8.75903 27.6976 8.75774H21.8669L20.0976 3.24307C19.8194 2.37502 19.2726 1.61776 18.5362 1.08049C17.7998 0.543229 16.9118 0.253723 16.0003 0.253723C15.0887 0.253723 14.2007 0.543229 13.4643 1.08049C12.7279 1.61776 12.1812 2.37502 11.9029 3.24307L10.1336 8.75774H4.30826C3.40125 8.75903 2.51785 9.04692 1.78423 9.58028C1.05061 10.1136 0.504312 10.8652 0.223352 11.7276C-0.0576067 12.59 -0.0588503 13.5191 0.219799 14.3823C0.498449 15.2454 1.04274 15.9984 1.77492 16.5337H1.76959Z" fill="#FAFAFA"/>
</g>
<defs>
<clipPath id="clip0_882_2355">
<rect width="32" height="32" fill="white"/>
</clipPath>
</defs>
</svg>
