<svg width="32" height="32" viewBox="0 0 32 32" fill="none" xmlns="http://www.w3.org/2000/svg">
<g clip-path="url(#clip0_882_2353)">
<path d="M15.9994 10.5945C17.1209 10.5945 18.0301 9.68528 18.0301 8.56377C18.0301 7.44227 17.1209 6.53308 15.9994 6.53308C14.8779 6.53308 13.9688 7.44227 13.9688 8.56377C13.9688 9.68528 14.8779 10.5945 15.9994 10.5945Z" fill="#FAFAFA"/>
<path d="M26.6668 0.000671387H5.33341C2.36847 0.0241089 -0.0176516 2.44367 9.8398e-05 5.40867V21.6353C-0.0176516 24.6005 2.36829 27.0204 5.33341 27.0446H9.23072L14.228 31.3113C15.2179 32.2159 16.7305 32.2292 17.736 31.342L22.8627 27.0433H26.6667C29.6318 27.0191 32.0178 24.5992 32 21.634V5.40867C32.0178 2.44367 29.6317 0.0241089 26.6668 0.000671387ZM16.0001 4.05667C22.1534 4.21936 22.1521 13.3594 16.0001 13.5234C9.84679 13.3593 9.8481 4.2233 16.0001 4.05667ZM21.6654 22.9447C20.9519 23.1267 20.2259 22.6959 20.0438 21.9824C20.043 21.9791 20.0422 21.9759 20.0414 21.9727C19.359 19.7404 16.996 18.4839 14.7637 19.1664C13.42 19.5772 12.3682 20.6289 11.9574 21.9727C11.7711 22.6855 11.0422 23.1123 10.3294 22.926C9.6166 22.7397 9.18979 22.0108 9.3761 21.298C10.4071 17.6393 14.2088 15.5091 17.8675 16.5401C20.1735 17.1899 21.9756 18.992 22.6254 21.298C22.811 22.0172 22.3828 22.7518 21.6654 22.9447Z" fill="#FAFAFA"/>
</g>
<defs>
<clipPath id="clip0_882_2353">
<rect width="32" height="32" fill="white"/>
</clipPath>
</defs>
</svg>
